<?xml version="1.0" standalone="no"?>
<!DOCTYPE svg PUBLIC "-//W3C//DTD SVG 20010904//EN"
 "http://www.w3.org/TR/2001/REC-SVG-20010904/DTD/svg10.dtd">
<svg version="1.0" xmlns="http://www.w3.org/2000/svg"
 width="739.000000pt" height="768.000000pt" viewBox="0 0 739.000000 768.000000"
 preserveAspectRatio="xMidYMid meet">

<g transform="translate(0.000000,768.000000) scale(0.100000,-0.100000)"
fill="#000000" stroke="none">
<path d="M3615 7630 c14 -27 25 -51 25 -54 0 -3 -25 6 -55 19 l-55 25 0 -111
c0 -123 -2 -121 73 -82 16 8 31 12 33 10 3 -2 -16 -44 -41 -93 -56 -108 -63
-149 -41 -209 16 -41 57 -87 88 -98 7 -2 10 -7 7 -10 -9 -11 -77 13 -107 38
-27 23 -28 23 -51 5 -16 -11 -22 -23 -18 -34 5 -13 -1 -16 -31 -16 -20 0 -53
3 -74 6 -32 6 -38 12 -53 50 -9 24 -20 44 -24 44 -4 0 -59 -6 -122 -14 -119
-15 -232 -40 -259 -58 -12 -8 -11 -8 4 -4 82 26 109 29 121 13 12 -17 46 -23
58 -10 4 3 2 12 -5 20 -15 18 -12 19 59 26 l62 7 14 -48 c14 -45 14 -47 -7
-52 -32 -9 -27 -36 6 -32 25 3 28 -1 49 -68 16 -53 19 -74 10 -79 -15 -10 -3
-41 15 -41 14 0 15 -5 34 -95 6 -27 13 -59 17 -70 12 -39 -22 8 -43 59 -20 50
-38 66 -56 48 -7 -7 -3 -25 11 -57 12 -26 21 -49 21 -51 0 -2 -20 -9 -45 -15
-44 -11 -53 -22 -37 -46 5 -8 19 -9 55 0 39 9 50 8 57 -3 7 -11 14 -12 34 -2
21 9 26 9 26 -3 0 -7 -9 -17 -20 -20 -24 -8 -25 -24 -5 -72 8 -19 15 -37 15
-39 0 -2 -18 -7 -40 -10 -44 -7 -53 -15 -45 -37 5 -11 15 -12 48 -6 53 9 60
-1 36 -57 -18 -40 -18 -46 -4 -80 18 -44 18 -44 1 -44 -8 0 -17 -6 -19 -12 -4
-10 -6 -10 -6 -1 -1 7 -8 10 -16 7 -12 -5 -15 2 -15 31 0 43 -13 72 -49 103
-23 21 -24 24 -9 33 21 12 12 39 -12 39 -12 0 -22 12 -30 35 -12 35 -24 42
-48 27 -10 -7 -10 -15 -2 -36 5 -15 10 -32 10 -37 0 -8 -137 -79 -153 -79 -4
0 -7 7 -7 15 0 8 -6 15 -12 15 -7 0 -13 12 -14 28 0 15 -4 39 -8 54 -7 24 -4
29 18 39 28 13 30 17 17 38 -8 12 -13 12 -35 -3 -26 -16 -26 -16 -43 19 -28
60 -55 36 -29 -27 15 -34 15 -35 -14 -57 -17 -12 -30 -30 -30 -41 0 -26 6 -25
43 6 l30 25 23 -47 c40 -82 39 -88 -9 -113 -49 -25 -78 -19 -111 25 -18 25
-18 26 5 50 16 17 19 28 12 35 -7 7 -14 5 -23 -6 -18 -22 -28 -19 -45 16 -13
24 -19 28 -30 19 -12 -10 -10 -22 16 -73 17 -34 25 -57 18 -50 -10 10 -15 9
-23 -1 -8 -10 -25 -12 -61 -7 -45 5 -50 9 -58 38 -8 25 -5 44 13 87 12 30 19
61 15 68 -3 7 9 -4 27 -25 27 -31 37 -36 45 -25 8 10 7 22 -7 48 -16 31 -16
37 -3 57 20 30 7 50 -18 27 -11 -9 -20 -15 -22 -13 -1 2 -20 30 -40 62 -38 57
-38 59 -21 85 9 15 35 44 58 66 40 38 40 38 55 17 13 -20 15 -20 32 -5 14 13
16 21 8 36 -7 13 -7 23 0 32 15 18 -8 37 -35 30 -14 -3 -24 4 -36 25 l-16 30
44 41 c24 22 56 46 70 52 22 11 28 10 40 -7 12 -16 18 -17 39 -7 23 11 24 14
13 34 -7 13 -11 26 -10 31 8 29 -129 -54 -194 -118 -68 -67 -106 -139 -123
-229 -22 -122 -5 -303 38 -401 26 -58 26 -55 0 -55 -24 0 -77 -29 -82 -44 -2
-6 1 -30 5 -54 9 -39 12 -43 36 -41 15 2 38 -4 52 -13 14 -9 37 -22 52 -29 15
-6 32 -25 39 -41 13 -31 62 -68 89 -68 9 0 28 -24 43 -56 28 -56 28 -56 7 -71
-39 -27 -20 -83 29 -83 23 0 22 -2 -15 -35 -33 -30 -37 -36 -23 -45 9 -5 26
-17 38 -27 l23 -18 -44 -31 c-24 -17 -53 -34 -66 -38 -32 -10 -84 9 -118 45
-26 28 -29 38 -35 124 -4 56 -12 101 -20 111 -7 9 -37 26 -65 39 -29 13 -69
42 -89 64 -44 49 -72 58 -112 38 -36 -19 -225 -174 -237 -194 -4 -9 -6 -37 -4
-64 l5 -49 -43 40 c-34 31 -51 40 -79 40 -49 0 -71 -14 -94 -58 l-20 -37 -1
43 c0 54 -12 78 -52 98 -30 16 -84 16 -120 0 -28 -13 -22 15 9 40 23 18 28 30
29 75 1 30 5 71 9 91 7 33 4 41 -24 68 -28 29 -36 31 -79 27 -26 -2 -57 -8
-69 -12 -18 -6 -24 -2 -32 17 -5 13 -16 30 -25 37 -9 7 -16 23 -16 35 0 28
-34 82 -60 96 -61 33 -154 2 -179 -59 -9 -20 -22 -31 -42 -35 -33 -6 -69 -56
-69 -96 0 -14 -9 -31 -20 -37 -27 -18 -43 -82 -29 -122 8 -22 8 -40 1 -59 -28
-75 -20 -132 29 -194 l30 -38 -32 -28 c-27 -24 -39 -28 -88 -27 -48 2 -61 6
-85 30 -24 24 -33 27 -72 22 -25 -2 -53 -12 -62 -20 -12 -11 -22 -13 -32 -7
-8 5 -32 10 -53 10 -89 0 -131 -125 -63 -189 22 -21 23 -23 7 -56 -9 -19 -28
-39 -44 -46 -15 -6 -35 -25 -45 -41 -9 -16 -31 -37 -49 -48 -21 -13 -36 -31
-44 -58 -16 -56 2 -90 67 -121 29 -14 58 -37 67 -53 9 -15 29 -33 44 -40 15
-7 29 -13 30 -13 2 -1 -2 -17 -7 -35 -8 -27 -6 -42 8 -71 23 -45 18 -59 -20
-59 -40 0 -88 -48 -88 -88 0 -29 0 -29 -46 -22 -60 9 -88 3 -119 -28 -35 -35
-42 -68 -21 -103 17 -28 16 -30 -3 -55 -12 -15 -21 -41 -21 -60 0 -32 -1 -33
-30 -28 -36 8 -87 -12 -101 -37 -7 -13 -21 -19 -45 -19 -63 0 -124 -54 -124
-110 0 -36 28 -85 59 -103 18 -10 32 -29 36 -47 8 -37 49 -70 86 -70 23 0 31
-7 43 -34 8 -18 24 -41 37 -50 26 -18 90 -21 118 -6 14 7 24 3 45 -19 l27 -29
-38 -18 c-46 -23 -68 -73 -53 -125 6 -22 6 -37 0 -43 -15 -15 -12 -87 5 -106
8 -9 12 -25 8 -38 -5 -21 -10 -22 -48 -16 -50 7 -111 -17 -120 -47 -4 -11 -24
-28 -45 -39 -51 -26 -70 -55 -70 -106 0 -48 27 -89 65 -98 19 -5 25 -13 25
-34 0 -69 71 -124 135 -105 30 10 34 8 44 -13 19 -42 101 -57 181 -33 30 9 43
8 68 -5 34 -18 97 -21 134 -7 22 8 23 7 23 -45 0 -57 -5 -64 -25 -39 -7 9 -29
15 -52 15 -32 0 -47 -7 -75 -35 -31 -31 -35 -40 -30 -70 8 -49 -28 -111 -61
-107 -13 2 -40 -7 -60 -21 -20 -13 -59 -27 -86 -30 -57 -8 -74 -20 -93 -65
-17 -40 -10 -67 27 -107 15 -17 30 -47 33 -68 8 -50 20 -64 68 -78 33 -10 40
-17 45 -46 6 -33 44 -73 70 -73 18 0 18 -5 -2 -35 -9 -13 -14 -39 -13 -58 2
-25 -4 -42 -24 -66 -33 -40 -37 -106 -8 -142 14 -17 17 -33 13 -66 -4 -39 -2
-46 31 -77 l36 -34 -24 -22 c-13 -12 -25 -32 -27 -43 -3 -19 -9 -21 -58 -18
-48 2 -59 -1 -78 -22 -22 -24 -25 -24 -54 -10 -53 27 -139 -1 -158 -51 -7 -19
-14 -22 -39 -18 -47 7 -91 -16 -107 -54 -8 -19 -28 -41 -44 -49 -39 -20 -70
-70 -70 -113 0 -38 46 -92 78 -92 13 0 22 -9 26 -25 7 -28 52 -55 92 -55 l27
0 -22 -23 c-13 -15 -21 -35 -20 -53 1 -16 -6 -42 -15 -59 -19 -35 -20 -51 -5
-93 16 -47 53 -66 129 -68 36 -1 82 -5 102 -9 30 -6 48 -2 91 19 30 14 68 26
84 26 41 0 94 38 115 81 12 26 25 38 46 42 16 3 43 19 60 35 20 19 35 26 44
21 7 -5 32 -9 55 -9 36 0 44 -4 63 -34 11 -19 37 -49 57 -66 30 -27 34 -35 24
-49 -67 -92 -62 -182 14 -224 20 -11 121 -19 222 -19 50 0 53 -1 53 -25 0 -13
11 -39 24 -56 14 -18 28 -44 31 -60 18 -72 135 -106 184 -53 20 21 26 23 56
14 72 -23 142 13 170 85 l16 43 67 -4 c43 -2 92 3 139 15 68 18 72 18 76 1 3
-9 -4 -35 -15 -57 -24 -50 -18 -88 22 -126 34 -32 107 -45 145 -25 20 11 27
11 40 0 10 -9 33 -11 70 -7 52 5 54 5 44 -14 -5 -11 -9 -36 -7 -57 2 -29 10
-41 38 -60 19 -13 37 -33 40 -45 3 -12 21 -32 39 -44 52 -35 103 -29 156 17
11 10 37 20 58 23 34 5 37 4 37 -17 0 -39 36 -72 131 -121 50 -26 107 -58 126
-71 47 -32 88 -31 116 2 45 52 119 122 140 132 12 6 43 20 70 31 37 15 53 31
75 68 15 26 71 92 124 147 l97 101 34 -33 c18 -17 43 -32 56 -32 29 0 186
-143 203 -185 22 -55 47 -82 102 -108 72 -34 136 -92 136 -123 0 -28 32 -64
58 -64 16 0 93 16 214 46 32 8 73 14 91 14 32 0 71 20 94 50 16 20 16 72 1 93
-7 9 -74 47 -148 85 -74 37 -175 97 -225 134 -49 36 -134 93 -188 128 l-97 62
24 19 c14 11 27 33 31 49 4 17 9 30 11 30 2 0 28 -14 58 -30 62 -35 170 -61
224 -53 20 2 54 11 75 19 36 14 38 13 49 -11 6 -13 25 -31 43 -40 31 -14 33
-18 28 -55 -7 -51 10 -92 47 -113 21 -13 31 -28 36 -55 10 -56 29 -80 76 -93
24 -7 56 -23 71 -35 60 -50 131 -39 174 25 13 19 37 43 53 53 38 23 55 64 41
96 -6 12 -11 27 -11 31 0 8 75 14 138 11 98 -4 123 -2 147 14 49 32 66 116 30
146 -10 8 -10 18 -2 39 l10 28 60 -19 c53 -16 131 -23 181 -16 10 2 22 -4 26
-12 3 -8 13 -28 21 -44 24 -50 63 -71 132 -71 40 0 71 -6 87 -17 68 -44 149
-26 177 39 8 21 28 53 44 71 16 18 29 44 29 57 0 22 5 25 33 25 17 0 46 4 63
9 20 6 46 5 71 -2 50 -13 88 -3 123 32 52 51 57 134 13 183 -27 30 -23 66 8
89 15 11 37 35 49 54 19 31 27 35 63 35 23 0 48 4 56 9 10 7 23 -1 46 -25 21
-22 42 -34 58 -34 21 0 30 -8 46 -44 21 -48 60 -76 114 -80 18 -1 48 -12 67
-24 48 -30 90 -36 131 -19 23 9 44 11 64 6 59 -16 134 22 156 78 14 36 11 54
-13 93 -12 19 -20 47 -19 62 1 15 -3 36 -9 47 -9 18 -8 21 9 21 23 0 81 46 81
65 0 7 12 16 26 19 45 12 74 50 74 98 0 50 -19 82 -61 103 -16 9 -35 31 -43
49 -20 48 -57 70 -106 63 -33 -4 -40 -2 -45 14 -13 40 -104 62 -160 40 -15 -6
-29 -1 -54 22 -31 26 -39 29 -83 24 -41 -5 -48 -4 -48 12 0 19 -35 55 -60 63
-10 3 -5 10 17 21 40 21 53 44 53 93 0 21 9 57 20 80 19 39 20 45 6 77 -8 20
-26 43 -40 52 -20 14 -24 21 -16 35 16 30 12 65 -10 85 -25 23 -25 35 -1 35
23 0 71 54 71 80 0 14 11 22 40 30 46 12 67 39 73 92 2 26 13 44 34 62 79 66
35 176 -70 176 -20 0 -47 10 -67 25 -19 14 -47 25 -62 25 -20 0 -31 6 -37 23
-5 13 -16 28 -24 35 -10 9 -13 25 -10 55 4 35 1 47 -20 69 -34 37 -66 43 -113
22 -21 -10 -41 -19 -44 -21 -3 -2 -5 21 -5 51 0 52 1 53 23 45 39 -15 90 -10
133 12 l40 20 45 -21 c59 -29 102 -21 142 24 27 31 34 34 69 29 70 -9 123 32
123 96 0 25 5 30 31 36 34 8 69 55 69 95 0 39 -35 87 -73 101 -20 7 -40 23
-46 35 -18 40 -55 57 -116 52 -49 -4 -55 -2 -55 14 0 10 7 30 16 43 12 18 14
36 10 67 -4 24 -6 69 -6 100 1 69 -10 92 -55 115 l-34 18 25 28 c22 26 27 28
56 18 53 -19 87 -13 119 18 16 16 29 39 29 50 0 17 6 21 31 21 36 0 89 47 89
79 0 12 6 21 14 21 8 0 28 12 45 26 77 64 31 204 -66 204 -26 0 -42 8 -63 30
-24 26 -35 30 -79 30 -49 0 -51 1 -51 28 0 15 -7 37 -15 49 -12 16 -13 28 -5
48 7 19 7 39 0 66 -15 55 -58 81 -128 77 l-52 -3 0 31 c0 45 -36 80 -93 88
-26 4 -47 9 -47 12 0 3 10 18 21 34 21 27 22 60 5 100 -4 11 2 19 24 27 16 6
38 25 47 42 10 17 34 37 55 45 56 23 78 52 78 103 0 33 -6 50 -25 68 -13 14
-28 25 -34 25 -5 0 -18 16 -29 35 -12 19 -32 37 -46 41 -15 3 -26 13 -26 23
-1 9 -7 27 -14 40 -12 21 -11 28 10 59 36 52 32 96 -11 139 -34 34 -38 35 -85
30 -34 -4 -58 -1 -77 8 -42 22 -78 18 -113 -12 -43 -36 -131 -40 -172 -7 -15
12 -33 24 -40 27 -9 3 -5 13 13 33 58 63 76 147 44 207 -10 21 -12 34 -5 47
22 41 3 109 -38 133 -8 6 -11 18 -7 36 8 37 -30 92 -73 105 -17 5 -32 15 -32
23 0 24 -55 71 -92 78 -68 13 -148 -48 -148 -111 0 -12 -7 -28 -16 -35 -9 -7
-20 -23 -25 -36 -8 -23 -33 -31 -43 -14 -3 5 -21 12 -40 15 -76 14 -136 -43
-122 -116 4 -18 8 -52 10 -76 2 -24 12 -56 24 -72 20 -27 28 -50 17 -50 -2 0
-15 5 -29 11 -34 16 -93 3 -122 -26 -18 -19 -24 -35 -24 -72 l-1 -48 -13 31
c-18 41 -52 64 -95 64 -28 0 -44 -9 -78 -42 l-43 -42 0 62 0 62 -106 87 c-58
49 -119 94 -135 101 -42 18 -74 6 -110 -40 -20 -25 -52 -49 -87 -64 -74 -32
-81 -45 -82 -132 0 -93 -19 -135 -75 -167 -53 -32 -71 -31 -123 2 l-42 28 39
20 40 20 -29 35 c-39 46 -39 70 -1 70 37 0 46 22 25 66 -16 34 -16 36 16 108
41 94 68 121 118 117 50 -3 92 29 92 69 0 16 5 32 10 35 6 3 10 22 10 41 0 37
-36 84 -65 84 -19 0 -20 -2 10 63 16 34 30 91 37 145 29 235 -53 431 -230 548
-72 48 -223 100 -327 113 -44 5 -92 13 -106 16 -18 5 -28 2 -32 -7 -4 -11 2
-13 23 -10 l29 4 -51 -118 c-55 -131 -146 -398 -173 -511 -13 -54 -20 -70 -31
-66 -8 3 -12 13 -10 22 3 9 14 53 26 99 32 128 86 300 129 414 55 146 55 146
32 113 -23 -33 -46 -43 -109 -44 -38 -1 -43 1 -37 18 9 30 -40 34 -81 6 -31
-21 -101 -42 -110 -32 -2 2 13 15 34 28 48 31 85 101 79 150 -3 20 -26 81 -52
134 -25 53 -44 99 -42 102 3 2 18 -2 34 -10 75 -39 73 -41 73 82 l0 111 -55
-25 c-30 -13 -55 -22 -55 -19 0 3 6 17 14 32 37 74 40 72 -83 72 l-111 0 25
-50z m155 20 c0 -6 -12 -33 -26 -61 -14 -28 -23 -53 -20 -56 2 -3 30 7 62 21
31 14 58 26 60 26 2 0 4 -31 4 -70 0 -38 -2 -70 -5 -70 -2 0 -30 11 -61 25
-31 14 -58 25 -60 25 -3 0 3 -17 12 -37 36 -85 39 -78 -36 -78 l-67 0 25 52
c14 29 23 55 20 58 -3 4 -29 -5 -57 -19 -28 -14 -55 -26 -61 -26 -6 0 -10 28
-10 70 0 39 2 70 5 70 2 0 30 -11 61 -25 32 -14 59 -24 61 -21 2 2 -8 29 -22
61 -14 32 -25 59 -25 61 0 2 32 4 70 4 42 0 70 -4 70 -10z m-30 -360 l0 -50
-35 0 -35 0 0 50 0 50 35 0 35 0 0 -50z m-110 -15 c0 -43 -1 -45 -30 -45 -35
0 -38 13 -10 58 27 44 40 40 40 -13z m180 13 c28 -45 25 -58 -10 -58 -29 0
-30 2 -30 45 0 53 13 57 40 13z m-1 -74 c29 -6 32 -10 29 -37 l-3 -30 -132 -1
c-124 -1 -132 0 -137 19 -10 35 -7 43 17 48 36 7 192 8 226 1z m-16 -100 c25
-9 17 -24 -23 -46 -58 -30 -132 -19 -170 27 -12 14 -12 18 1 26 15 11 161 5
192 -7z m-475 -69 c55 -136 100 -325 126 -525 8 -58 11 -109 8 -114 -3 -5 -22
76 -43 180 -31 156 -99 395 -144 508 -6 14 -4 17 10 14 12 -2 28 -25 43 -63z
m975 54 c28 -7 37 -15 33 -25 -8 -21 21 -29 49 -14 19 10 32 9 71 -4 71 -24
78 -30 65 -53 -9 -17 -6 -22 16 -32 19 -9 29 -9 39 0 17 14 42 -1 97 -57 43
-45 44 -50 16 -80 -20 -22 -23 -22 -46 -7 -32 21 -55 3 -30 -25 9 -10 17 -26
17 -34 0 -18 28 -44 37 -34 4 3 19 -6 35 -21 22 -21 31 -24 40 -15 9 9 5 19
-17 42 l-29 30 22 23 c19 19 24 20 32 7 11 -17 44 -101 54 -140 7 -22 4 -21
-23 10 -25 29 -31 32 -36 18 -4 -10 2 -29 16 -47 l22 -30 -43 -58 c-24 -32
-45 -60 -47 -62 -2 -3 -11 5 -19 18 -13 17 -19 20 -30 10 -18 -15 -18 -33 2
-50 8 -7 13 -21 11 -30 -3 -10 1 -23 8 -29 10 -8 24 3 58 48 25 32 53 64 63
72 16 14 17 11 11 -49 -8 -73 -26 -141 -39 -141 -4 0 -8 5 -8 10 0 6 -7 27
-15 47 -11 27 -18 34 -26 26 -9 -9 -5 -26 11 -66 30 -71 22 -111 -18 -103 -16
4 -39 0 -56 -9 -24 -13 -31 -13 -38 -3 -13 22 -9 37 27 91 31 45 33 53 20 66
-8 8 -16 13 -18 10 -2 -2 -20 -28 -40 -58 -33 -50 -36 -52 -47 -32 -6 12 -16
18 -22 15 -6 -4 -8 -3 -5 3 4 6 -9 28 -27 49 l-33 39 29 53 c25 43 28 55 18
67 -11 13 -17 8 -43 -37 -16 -29 -31 -55 -33 -57 -2 -2 -13 4 -25 14 -17 16
-22 17 -29 5 -6 -10 -2 -23 15 -40 19 -20 22 -29 13 -38 -8 -8 -8 -15 2 -27
12 -15 14 -15 23 0 8 15 13 13 44 -17 33 -31 69 -86 61 -93 -2 -2 -33 -8 -70
-13 -54 -7 -70 -6 -82 6 -12 12 -11 19 6 48 22 38 18 75 -6 55 -8 -7 -19 -24
-26 -40 l-11 -28 -74 49 -75 50 21 39 c11 22 17 44 13 50 -13 21 -36 2 -69
-58 -32 -59 -33 -62 -15 -68 24 -8 26 -21 5 -29 -25 -9 -55 -69 -55 -109 0
-34 -2 -38 -20 -32 -12 4 -20 2 -20 -5 0 -7 -6 -6 -15 3 -13 14 -13 19 0 44
19 35 19 51 0 87 -27 51 -21 65 28 63 36 -2 42 1 45 20 3 18 -4 24 -35 32 -21
6 -44 11 -50 11 -18 0 -16 15 7 61 21 40 20 59 -5 59 -8 0 -11 7 -8 20 5 18 7
18 21 4 14 -15 17 -15 27 0 11 15 16 15 56 1 43 -16 69 -14 69 4 0 5 -23 17
-50 26 l-51 17 30 55 c17 31 28 60 25 64 -14 23 -37 3 -68 -58 -39 -76 -45
-62 -17 42 12 45 24 71 34 73 19 4 31 33 17 42 -7 4 -5 21 8 51 10 24 22 57
26 72 5 22 11 27 25 22 12 -3 21 0 25 10 3 9 0 15 -9 15 -11 0 -14 9 -13 32 5
62 42 79 121 57z m-749 -146 c37 -117 86 -324 86 -367 0 -14 -4 -26 -10 -26
-5 0 -10 7 -10 16 0 37 -54 253 -90 359 -26 78 -34 116 -26 119 6 2 12 5 13 5
1 1 18 -47 37 -106z m376 103 c0 -2 -18 -57 -40 -122 -21 -66 -48 -168 -60
-229 -33 -173 -30 -162 -41 -142 -19 33 64 385 113 480 7 15 28 24 28 13z
m-308 -71 c-13 -38 -6 -85 17 -108 19 -21 20 -25 6 -37 -8 -7 -15 -27 -16 -44
l-1 -31 -9 35 c-25 90 -58 207 -64 222 -7 16 -5 16 34 0 34 -14 39 -20 33 -37z
m223 -29 c-22 -73 -55 -221 -70 -323 -6 -41 -17 -54 -29 -34 -3 5 1 14 9 21
18 15 20 53 4 81 -8 16 -7 25 4 37 25 29 29 60 13 93 -14 28 -14 32 4 52 22
23 26 67 10 98 -9 16 -7 21 17 29 15 6 35 14 43 19 8 5 16 8 17 7 1 -1 -9 -37
-22 -80z m-101 18 c21 -20 20 -43 -1 -66 -32 -36 -83 -17 -83 32 0 14 5 31 12
38 17 17 54 15 72 -4z m0 -150 c9 -8 16 -22 16 -30 0 -15 -35 -54 -48 -54 -18
0 -52 33 -52 50 0 24 26 50 50 50 10 0 26 -7 34 -16z m-1085 -92 c-30 -32 -55
-55 -57 -51 -4 9 32 94 55 128 l15 23 21 -20 20 -21 -54 -59z m998 -33 c-14
-20 -15 -20 -21 3 -3 13 -6 31 -6 41 0 15 2 15 20 -3 18 -18 19 -23 7 -41z
m78 -39 c0 -18 -6 -26 -23 -28 -13 -2 -25 3 -28 12 -10 26 4 48 28 44 17 -2
23 -10 23 -28z m-62 -63 c-7 -11 -23 2 -23 19 0 12 2 12 14 2 8 -7 12 -16 9
-21z m68 -38 c15 -15 19 -28 15 -45 -6 -22 -5 -23 13 -12 17 10 23 9 40 -6 25
-22 26 -44 7 -91 -16 -39 -52 -63 -69 -46 -6 6 -16 37 -23 68 -6 32 -14 51
-17 43 -2 -8 -12 -41 -21 -72 -9 -32 -21 -58 -25 -58 -17 0 -70 58 -77 83 -14
57 16 98 55 77 16 -8 17 -6 13 16 -5 29 22 64 50 64 10 0 27 -9 39 -21z
m-1102 -45 l33 -47 -25 -54 c-14 -30 -27 -51 -30 -46 -8 12 -27 131 -27 166 0
38 11 34 49 -19z m944 -162 c15 -14 27 -31 27 -38 0 -13 -39 -28 -105 -40
l-40 -8 40 -7 c22 -4 57 -15 78 -23 42 -18 41 -31 -7 -75 -50 -47 -143 -22
-115 31 9 17 8 19 -10 13 -15 -4 -28 1 -46 19 -14 14 -25 30 -25 36 0 6 11 22
25 36 18 18 31 23 46 19 18 -6 19 -4 10 13 -7 14 -7 23 2 34 28 35 77 31 120
-10z m359 27 c16 -9 19 -17 14 -41 -5 -25 -3 -29 10 -24 24 9 64 -20 64 -48 0
-30 -33 -60 -60 -53 -17 4 -19 2 -14 -19 9 -35 -12 -54 -58 -54 -30 0 -46 7
-69 29 -16 16 -29 34 -29 39 0 15 37 43 76 57 l36 12 -28 7 c-15 4 -43 14 -62
21 -32 14 -33 15 -18 37 31 44 93 61 138 37z m-209 -38 c53 -20 61 -125 12
-157 -37 -24 -73 -11 -91 32 -19 45 -10 88 23 114 30 23 25 22 56 11z m-478
-66 c32 -31 34 -91 5 -123 -27 -28 -52 -28 -87 2 -37 32 -39 99 -4 127 31 26
57 24 86 -6z m1024 -1 c24 -30 26 -48 10 -93 -11 -31 -52 -61 -84 -61 -30 0
-55 38 -55 84 0 84 83 129 129 70z m-654 -4 c-3 -5 -14 -10 -23 -10 -15 0 -15
2 -2 10 20 13 33 13 25 0z m205 -5 c0 -2 -7 -5 -15 -9 -9 -3 -15 0 -15 9 0 9
6 12 15 9 8 -4 15 -7 15 -9z m-732 -121 c11 -20 7 -34 -9 -34 -4 0 -17 30 -30
67 -21 65 -21 67 -3 80 18 13 19 11 25 -39 3 -30 11 -63 17 -74z m37 77 c0
-34 6 -56 20 -72 16 -19 17 -21 2 -10 -23 18 -47 64 -47 89 0 13 17 42 25 42
0 0 0 -22 0 -49z m-392 -18 c8 -10 17 -29 18 -43 6 -67 -6 -73 -72 -40 -30 16
-47 19 -72 12 -28 -7 -33 -5 -44 16 -21 40 21 67 67 42 15 -8 21 -6 30 10 13
25 51 26 73 3z m1829 0 c22 -25 29 -55 18 -73 -9 -14 -43 -10 -115 16 -18 6
-18 5 -4 -7 25 -21 49 -62 49 -81 0 -25 -42 -33 -79 -14 -32 17 -44 60 -19 68
9 3 8 9 -5 22 -20 20 -21 30 -7 57 11 20 54 26 65 9 9 -15 25 -12 25 5 0 21
53 19 72 -2z m146 1 c8 -14 10 -14 21 0 17 20 55 21 71 2 17 -22 8 -59 -18
-72 -15 -7 -20 -14 -13 -18 32 -20 -2 -66 -48 -66 -30 0 -35 17 -14 53 l19 32
-53 -3 c-50 -4 -53 -3 -53 20 0 53 65 93 88 52z m-1834 -19 c6 -11 12 -22 13
-24 2 -2 12 8 24 23 28 35 67 32 89 -7 14 -27 14 -29 -12 -52 -24 -21 -26 -26
-16 -53 15 -39 -2 -62 -47 -62 -59 0 -66 37 -17 93 18 20 14 21 -25 6 -15 -6
-42 -8 -60 -4 -28 5 -33 10 -33 35 0 34 33 73 57 68 9 -2 21 -12 27 -23z
m1492 -52 c1 -70 3 -78 27 -99 15 -13 27 -26 27 -29 0 -3 -20 -5 -45 -5 -35 0
-52 6 -76 28 l-31 28 37 64 c33 57 55 90 59 90 0 0 1 -34 2 -77z m1651 49 c6
-4 15 -20 18 -35 8 -31 17 -38 65 -52 32 -10 35 -14 35 -48 0 -29 7 -44 33
-68 23 -21 31 -36 26 -48 -29 -69 -29 -72 -11 -102 29 -52 22 -81 -35 -150
l-53 -63 -3 41 c-2 30 3 50 22 78 15 21 26 43 26 49 0 6 -10 -5 -23 -24 l-22
-35 -13 70 c-12 64 -12 97 2 180 l6 30 -12 -27 c-14 -34 -28 -36 -29 -5 -1 27
-37 108 -38 85 -1 -10 6 -38 15 -64 16 -49 34 -144 27 -144 -3 0 -25 18 -50
40 -68 60 -69 48 -2 -17 51 -50 60 -64 65 -105 8 -60 -9 -64 -65 -13 -21 19
-41 35 -45 35 -4 0 16 -20 44 -45 28 -25 55 -45 61 -45 6 0 9 -10 7 -22 -4
-31 -56 -36 -109 -10 -27 13 -36 15 -28 6 7 -8 38 -22 71 -31 32 -9 58 -20 58
-24 0 -19 -23 -18 -87 5 -110 41 -134 86 -82 159 l20 28 -22 43 -22 44 23 47
c17 34 20 49 11 58 -19 19 -12 45 19 77 21 22 30 41 30 64 0 18 3 36 7 39 9 9
45 9 60 -1z m-4597 -21 c5 -11 10 -31 10 -45 0 -15 8 -30 20 -36 25 -14 35
-52 20 -80 -9 -17 -8 -26 4 -45 20 -30 20 -72 2 -116 -13 -30 -12 -35 7 -61
31 -42 28 -95 -7 -123 -39 -31 -143 -62 -158 -47 -11 11 6 22 57 35 11 2 1 5
-23 6 -30 1 -45 6 -49 18 -4 9 -1 19 6 21 20 7 71 53 83 76 7 14 -3 9 -30 -16
-56 -51 -66 -49 -58 8 4 34 17 59 53 102 38 46 40 51 12 25 -19 -18 -37 -33
-41 -33 -9 0 3 103 18 149 8 25 14 49 14 55 -1 19 -40 -76 -40 -96 0 -28 -17
-13 -25 23 -4 17 -9 28 -12 25 -3 -2 2 -29 11 -60 13 -42 14 -65 6 -98 -5 -24
-10 -62 -10 -86 0 -52 -17 -52 -42 -1 -9 19 -17 28 -18 21 0 -18 26 -66 44
-81 17 -15 23 -91 7 -91 -17 0 -99 109 -106 141 -5 21 -1 44 11 71 15 33 16
45 6 72 -18 48 -15 60 18 84 24 18 29 29 27 58 -2 39 7 48 56 59 15 3 30 11
32 18 23 65 25 67 54 67 20 0 34 -7 41 -19z m2331 -48 c17 -34 38 -56 73 -78
43 -26 59 -30 120 -30 81 1 136 24 180 76 31 37 70 35 80 -5 9 -36 55 -87 93
-102 65 -27 166 -15 225 28 14 10 20 10 29 1 33 -33 -91 -93 -189 -93 -69 0
-150 35 -181 77 l-22 29 -60 -30 c-51 -25 -72 -30 -137 -29 -91 0 -173 27
-217 73 -35 37 -45 37 -76 4 -57 -61 -178 -94 -275 -74 -32 6 -78 22 -101 35
l-41 23 -22 -30 c-32 -43 -113 -78 -182 -78 -96 0 -222 60 -190 92 8 8 20 5
44 -10 18 -11 52 -25 74 -31 89 -24 197 27 225 104 18 49 52 55 86 15 52 -62
157 -93 239 -71 62 17 106 51 134 104 34 64 60 64 91 0z m-371 27 c28 8 29 7
40 -41 7 -28 10 -53 6 -56 -12 -12 -86 18 -106 44 l-21 27 20 8 c12 4 21 13
22 20 0 9 2 9 5 1 4 -8 14 -9 34 -3z m687 -20 c40 -15 34 -34 -18 -60 -34 -18
-89 -27 -89 -15 0 2 5 26 11 54 11 54 7 53 96 21z m-1372 -40 c3 -5 1 -10 -5
-10 -15 0 -60 31 -60 41 0 11 56 -16 65 -31z m1836 23 c13 -15 12 -15 -8 -4
-24 12 -29 21 -14 21 5 0 15 -7 22 -17z m129 2 c30 -36 -22 -100 -77 -93 -41
4 -43 40 -4 78 32 33 62 38 81 15z m40 11 c0 -3 -4 -8 -10 -11 -5 -3 -10 -1
-10 4 0 6 5 11 10 11 6 0 10 -2 10 -4z m-1656 -23 c5 -11 1 -22 -11 -31 -15
-11 -19 -10 -24 5 -6 18 6 43 21 43 4 0 11 -8 14 -17z m852 1 c-3 -9 -6 -26
-6 -39 0 -18 -4 -22 -20 -18 -14 4 -20 14 -20 32 0 33 7 41 33 41 13 0 17 -5
13 -16z m-386 -23 c0 -17 -4 -33 -10 -36 -6 -4 -10 8 -10 29 0 20 5 36 10 36
6 0 10 -13 10 -29z m-692 -14 c25 -24 30 -75 7 -83 -28 -11 -65 6 -85 39 -24
38 -24 41 -5 60 18 18 52 12 83 -16z m55 18 c-6 -17 -25 -15 -31 3 -2 7 5 12
17 12 14 0 19 -5 14 -15z m247 -42 c0 -26 -1 -26 -14 -7 -11 14 -11 21 -3 26
17 11 17 11 17 -19z m-40 -18 c17 -21 9 -26 -45 -32 -50 -6 -56 1 -23 28 26
23 51 24 68 4z m654 -14 l28 -29 -60 -4 -60 -3 27 32 c14 17 29 32 32 32 3 1
18 -12 33 -28z m446 -41 l22 -30 -59 6 c-32 4 -59 8 -61 9 -3 3 60 43 70 44 4
1 16 -13 28 -29z m-896 5 c21 -16 16 -19 -36 -28 -26 -4 -26 -3 -11 20 18 27
21 27 47 8z m425 -48 c10 -13 6 -15 -26 -14 -38 0 -63 12 -63 28 0 16 29 10
40 -8 9 -15 10 -15 5 5 -6 21 -5 23 12 13 11 -5 25 -16 32 -24z m39 4 c12 -14
13 -14 9 1 -5 13 2 16 31 16 21 0 42 -7 50 -16 13 -16 13 -16 8 1 -8 24 20 22
34 -2 9 -18 7 -20 -23 -19 -17 0 -41 8 -51 17 -18 15 -19 15 -13 -1 10 -28
-61 -19 -81 10 -14 21 -13 22 4 15 11 -4 25 -14 32 -22z m810 -21 c-11 -27
-26 -50 -31 -50 -6 0 -31 7 -55 17 l-43 16 50 18 c28 9 60 24 73 33 12 9 23
16 25 16 1 0 -7 -22 -19 -50z m-982 19 c16 -18 16 -19 -1 -19 -10 0 -24 8 -32
18 -14 16 -14 16 -9 0 3 -10 0 -18 -6 -18 -6 0 -21 8 -32 18 -16 13 -18 14 -8
1 19 -26 -44 -36 -72 -12 -20 17 -20 17 -7 1 12 -16 11 -18 -5 -18 -11 0 -24
8 -31 18 -10 17 -8 19 20 19 18 0 41 -7 51 -16 18 -15 19 -15 13 1 -7 19 7 24
65 25 24 0 43 -6 54 -18z m39 1 c15 -16 15 -20 3 -20 -8 0 -23 9 -33 20 -15
16 -15 20 -3 20 8 0 23 -9 33 -20z m303 8 c16 -16 15 -28 -3 -28 -8 0 -19 9
-25 20 -8 15 -8 20 3 20 7 0 18 -5 25 -12z m47 -8 c10 -11 16 -22 13 -25 -9
-9 -33 4 -46 25 -17 28 8 27 33 0z m-1000 -35 c17 -6 15 -9 -15 -20 -19 -8
-38 -14 -42 -14 -7 -1 -48 61 -48 73 0 3 19 -3 43 -13 23 -11 51 -23 62 -26z
m1043 33 c16 -16 15 -28 -1 -28 -7 0 -18 9 -25 20 -10 16 -10 20 1 20 7 0 18
-5 25 -12z m46 -10 c9 -12 14 -23 12 -25 -7 -7 -32 8 -44 27 -18 29 12 27 32
-2z m-696 -1 c19 -15 14 -22 -20 -24 -30 -2 -58 11 -58 27 0 10 63 9 78 -3z
m742 -7 c8 -16 8 -20 -4 -20 -9 0 -20 9 -26 20 -8 16 -8 20 4 20 9 0 20 -9 26
-20z m34 4 c19 -18 21 -37 4 -32 -16 6 -43 48 -30 48 6 0 18 -7 26 -16z m-863
-4 c21 -12 26 -30 7 -30 -6 0 -21 8 -32 18 -15 12 -18 13 -8 1 10 -14 -1 -18
-93 -38 -58 -12 -114 -19 -126 -16 -15 5 -19 4 -15 -4 9 -14 -23 -14 -44 -1
-12 8 -10 10 10 10 15 0 31 5 38 12 9 9 18 9 38 -1 23 -10 26 -10 16 2 -18 21
97 44 130 26 21 -11 22 -11 10 4 -13 16 -11 17 41 26 5 0 17 -4 28 -9z m903
-6 c9 -22 -3 -32 -14 -14 -12 19 -12 30 -1 30 5 0 12 -7 15 -16z m30 0 c9 -8
16 -11 16 -5 0 18 17 12 23 -8 6 -25 -40 -26 -53 0 -18 32 -11 39 14 13z m85
-26 l11 -23 -6 24 c-4 16 -3 21 5 17 6 -4 21 -9 33 -11 25 -5 62 -44 52 -54
-3 -3 -17 8 -31 24 -22 27 -24 28 -18 6 5 -16 4 -21 -4 -17 -6 4 -20 9 -32 11
-38 7 -68 45 -36 45 8 0 19 -10 26 -22z m-471 -57 c41 -24 72 -44 70 -46 -2
-1 -44 -27 -94 -58 l-90 -54 -87 52 c-48 29 -90 55 -93 58 -3 3 36 30 87 61
83 49 96 54 114 42 11 -7 53 -32 93 -55z m-258 15 c-105 -64 -103 -57 -26
-103 l68 -41 -68 -6 c-263 -24 -405 -46 -505 -80 l-44 -15 54 48 54 48 -56 39
c-31 21 -56 42 -57 45 0 4 24 14 53 23 128 40 347 73 492 75 l90 1 -55 -34z
m515 19 c137 -16 303 -52 370 -81 l40 -16 -77 -31 c-43 -16 -78 -35 -78 -42 0
-6 13 -24 30 -40 16 -16 28 -30 27 -32 -2 -2 -37 6 -78 16 -79 20 -262 45
-413 56 l-89 7 54 33 c30 19 61 38 69 43 11 6 -3 19 -58 51 -40 24 -72 45 -72
47 0 9 155 3 275 -11z m345 -6 c7 -11 9 -23 6 -26 -7 -7 -24 5 -36 28 -8 15
-7 19 4 19 9 0 20 -9 26 -21z m34 -5 c21 -20 22 -52 2 -35 -12 10 -29 51 -21
51 2 0 11 -7 19 -16z m43 -16 c16 -21 23 -48 13 -48 -5 0 -16 14 -25 30 -15
30 -7 42 12 18z m-1517 -9 c11 -7 3 -9 -30 -5 -28 4 -38 3 -26 -2 11 -5 15
-11 10 -15 -14 -8 -38 9 -30 22 9 14 56 14 76 0z m1565 -29 c13 -26 14 -29 0
-24 -8 4 -15 10 -15 14 0 5 -3 15 -6 24 -11 28 5 17 21 -14z m-1646 1 c11 -7
9 -10 -8 -16 -13 -4 -25 -4 -28 -1 -4 3 0 6 8 6 11 0 11 2 -1 10 -13 9 -13 10
0 10 8 0 21 -4 29 -9z m100 -75 l43 -31 -53 -48 c-44 -39 -55 -45 -58 -31 -2
11 10 30 30 47 l32 30 -31 26 c-18 14 -32 32 -32 39 0 15 6 12 69 -32z m-1210
0 c8 -9 10 -28 6 -48 -5 -25 -2 -38 9 -47 23 -19 20 -38 -10 -66 -25 -23 -26
-27 -14 -55 15 -36 7 -48 -42 -65 -30 -9 -33 -14 -33 -51 0 -52 -22 -78 -84
-98 -61 -21 -142 -25 -148 -8 -3 7 4 12 19 12 37 0 124 28 138 45 10 12 6 12
-20 -2 -18 -8 -53 -18 -79 -21 l-46 -5 16 24 c10 14 42 33 80 47 58 21 45 24
-26 6 l-27 -7 15 30 c20 38 41 55 86 70 l36 12 -40 -6 c-38 -6 -39 -5 -26 13
8 10 42 48 75 83 52 55 55 60 20 33 -22 -17 -47 -38 -54 -47 -24 -29 -30 -15
-10 25 11 22 18 40 16 40 -9 0 -46 -68 -46 -85 0 -10 -17 -43 -37 -73 l-37
-54 -12 34 -12 33 -1 -53 c-1 -76 -33 -125 -44 -69 -4 14 -5 9 -5 -13 0 -54
-1 -57 -22 -31 -13 15 -20 38 -20 65 0 34 6 48 30 71 17 16 37 50 44 75 12 42
16 46 62 61 27 9 54 26 59 37 20 38 38 52 66 52 16 0 39 11 55 25 31 28 46 31
63 11z m2705 1 c-2 -7 -20 -19 -40 -26 l-35 -12 26 -31 c46 -54 28 -67 -21
-14 l-45 49 53 23 c64 27 69 28 62 11z m1156 -12 c17 -18 34 -25 60 -25 31 0
38 -4 51 -32 10 -23 26 -37 54 -48 59 -22 65 -28 65 -61 0 -22 11 -41 40 -70
51 -50 59 -82 34 -127 -22 -41 -39 -40 -37 3 1 17 -1 22 -3 13 -14 -48 -43 4
-46 80 -1 37 -2 40 -5 15 -2 -18 -7 -33 -11 -33 -12 1 -82 108 -82 125 0 17
-27 75 -36 75 -2 0 3 -14 11 -31 23 -43 9 -50 -24 -14 -15 17 -43 43 -62 60
l-34 30 35 -40 c19 -22 55 -62 80 -89 l45 -49 -35 7 c-19 3 -48 8 -65 11 -16
3 2 -6 42 -20 60 -22 75 -33 98 -67 l27 -41 -23 7 c-66 18 -80 16 -30 -6 30
-13 61 -34 70 -47 l16 -24 -45 7 c-25 4 -62 15 -82 25 -21 10 -35 14 -32 10
10 -16 58 -36 117 -49 77 -18 74 -34 -5 -28 -115 10 -178 52 -170 115 4 28
-13 53 -37 53 -10 0 -26 6 -36 14 -17 12 -17 17 -5 45 12 30 11 34 -14 60 -31
33 -32 44 -6 69 18 17 19 23 9 45 -9 21 -9 30 1 42 18 22 43 18 70 -10z
m-2750 -5 c0 -5 12 -10 26 -10 14 0 23 -4 19 -10 -3 -5 -18 -10 -32 -10 -21 0
-24 -2 -13 -15 17 -21 3 -19 -25 3 -22 18 -23 20 -7 35 18 19 32 22 32 7z
m1627 -67 c-29 -16 -38 -16 -31 0 3 8 -5 19 -18 25 -23 12 -22 12 5 9 20 -3
27 0 27 12 0 12 6 9 20 -9 19 -25 19 -25 -3 -37z m-817 2 c31 -33 8 -40 -29
-9 -29 24 -45 22 -20 -3 24 -24 -11 -22 -40 3 -33 27 -42 23 -14 -8 15 -17 15
-18 -4 -18 -11 0 -30 11 -43 25 -27 28 -42 25 -16 -4 16 -18 15 -18 -38 -19
-45 0 -58 4 -77 24 l-22 24 27 0 c17 0 35 -9 47 -22 10 -13 18 -18 19 -11 0 6
-4 15 -10 18 -26 16 -2 21 95 22 95 0 106 -2 125 -22z m118 3 c12 -12 22 -25
22 -30 0 -17 -32 -7 -56 17 -30 30 -38 32 -24 5 16 -30 -23 -27 -44 4 l-15 24
47 0 c34 0 53 -5 70 -20z m146 12 c16 0 39 -9 52 -21 45 -42 2 -47 -43 -6 -23
21 -33 11 -11 -11 26 -26 -26 -12 -56 16 l-30 27 17 -27 c17 -27 17 -28 -1
-28 -19 0 -40 14 -61 42 -12 16 -8 17 46 13 32 -3 71 -5 87 -5z m-556 -25 l22
-25 -22 0 c-22 0 -58 26 -58 42 0 17 37 7 58 -17z m676 -2 c14 -15 24 -29 22
-31 -10 -9 -53 12 -69 34 -17 23 -17 24 2 24 11 0 31 -12 45 -27z m-786 -5
l25 -23 -12 23 c-10 19 -9 22 7 22 10 0 27 -8 36 -19 16 -18 15 -19 -25 -25
-32 -5 -46 -3 -60 10 -11 10 -19 21 -19 26 0 15 23 8 48 -14z m855 -3 c17 -24
17 -25 -1 -25 -10 0 -29 11 -42 25 l-23 25 24 0 c14 0 32 -11 42 -25z m-898
-5 c17 -19 17 -20 0 -20 -10 0 -27 8 -38 18 -19 16 -20 16 -8 -5 10 -19 9 -23
-3 -23 -17 0 -48 28 -42 38 2 4 20 8 39 9 24 2 40 -3 52 -17z m959 -2 c9 -12
14 -24 12 -26 -9 -8 -42 9 -54 28 -11 17 -10 20 7 20 11 0 27 -10 35 -22z m59
-9 c14 -23 29 -25 21 -4 -9 24 23 18 40 -7 18 -25 14 -34 -11 -23 -10 4 -28 8
-40 9 -21 2 -63 32 -63 47 0 14 41 -4 53 -22z m-1114 2 c9 -16 6 -19 -21 -25
-22 -4 -37 -1 -51 11 -18 15 -20 16 -15 2 8 -21 -59 -44 -79 -27 -11 8 -12 7
-7 -7 6 -15 5 -16 -17 -5 -22 12 -23 12 -10 -3 7 -10 11 -17 8 -17 -13 0 -37
13 -37 20 0 12 163 68 202 69 10 1 22 -7 27 -18z m1217 -23 c11 -16 15 -17 11
-5 -8 23 10 22 23 -2 15 -29 13 -31 -20 -19 -17 5 -35 19 -41 29 -14 27 6 24
27 -3z m-238 -14 c36 -6 48 -13 68 -45 13 -21 24 -41 24 -44 0 -3 -247 -5
-550 -5 l-549 0 21 36 c11 19 31 39 44 44 64 25 801 35 942 14z m301 2 c7 -8
8 -17 3 -20 -6 -3 -12 3 -15 14 -6 24 -4 25 12 6z m-2439 -75 l35 -21 -33 0
-32 0 2 -1817 c3 -2090 -7 -1878 103 -1989 67 -68 119 -92 270 -127 83 -18
127 -20 565 -22 454 -1 478 -2 554 -23 112 -31 183 -76 210 -135 5 -9 7 -9 12
1 28 61 105 109 224 138 68 17 112 19 489 16 235 -1 458 2 516 8 276 28 420
117 463 285 7 26 11 660 14 1850 l3 1810 -34 3 -34 4 49 28 c27 15 58 37 68
49 11 11 22 21 26 21 12 0 22 -30 30 -83 6 -47 6 -48 -26 -63 -44 -21 -60 -62
-45 -117 6 -23 10 -59 9 -79 -2 -45 27 -82 78 -98 26 -9 34 -17 34 -35 0 -27
43 -65 73 -65 18 0 19 -5 14 -51 -7 -58 -52 -160 -100 -228 -45 -63 -57 -95
-57 -145 0 -57 42 -138 129 -246 62 -77 67 -86 49 -92 -12 -5 -28 -2 -41 7
-12 8 -39 15 -60 15 -31 0 -46 -7 -74 -35 -33 -33 -35 -39 -30 -82 3 -26 0
-57 -5 -69 -14 -30 -3 -70 27 -96 29 -25 28 -73 -4 -113 -37 -48 -25 -106 30
-141 8 -5 22 -26 31 -46 22 -47 61 -73 110 -73 21 0 40 -5 42 -12 7 -18 -11
-25 -33 -13 -47 25 -120 0 -146 -50 -19 -37 -19 -87 0 -124 9 -17 13 -42 10
-60 -4 -21 1 -41 13 -61 l18 -29 -39 -38 c-36 -34 -39 -41 -33 -75 3 -21 9
-63 13 -93 5 -30 12 -60 16 -67 5 -7 -6 -30 -27 -57 -60 -79 -71 -197 -26
-273 17 -28 20 -52 20 -142 0 -67 -6 -126 -15 -157 -22 -74 -19 -150 9 -211
14 -28 62 -108 108 -176 46 -69 104 -163 130 -208 l47 -84 -57 -49 c-31 -28
-82 -75 -113 -106 l-56 -56 -49 53 c-54 58 -81 66 -133 38 -47 -24 -66 -114
-37 -180 l13 -30 -51 -16 c-61 -19 -76 -11 -76 40 0 116 -145 171 -212 80 -13
-17 -28 -27 -36 -24 -8 3 -34 -4 -58 -14 -40 -18 -46 -18 -74 -4 -36 18 -70
12 -120 -22 -19 -13 -49 -26 -67 -30 -17 -3 -43 -17 -58 -31 -14 -13 -29 -24
-32 -24 -3 0 -26 15 -52 34 -38 28 -68 39 -149 56 -56 11 -113 25 -127 30 -68
26 -138 -3 -180 -73 -13 -23 -43 -87 -65 -142 -59 -141 -60 -142 -114 -88 -35
35 -50 43 -80 43 -47 0 -143 -34 -171 -60 -17 -16 -33 -21 -66 -18 l-44 3 -71
138 c-96 185 -164 252 -239 233 -13 -3 -58 -1 -99 5 -41 6 -92 8 -111 5 -43
-8 -103 -60 -130 -113 -10 -21 -20 -39 -21 -41 -1 -2 -19 8 -39 23 -21 14 -45
25 -55 25 -9 0 -25 9 -35 20 -10 11 -35 25 -56 31 -32 10 -44 9 -77 -8 -38
-19 -40 -19 -62 -1 -12 10 -35 18 -50 18 -19 0 -40 12 -63 35 -79 79 -207 22
-207 -92 0 -46 -14 -52 -75 -35 l-54 15 15 28 c17 33 18 102 3 132 -19 37 -52
57 -95 57 -47 0 -82 -26 -104 -77 l-14 -31 -70 62 c-38 33 -93 84 -122 111
l-53 50 84 138 c46 76 102 159 123 185 58 69 110 170 117 227 5 38 2 65 -14
112 -30 90 -30 256 1 316 43 83 27 189 -45 290 -15 23 -17 33 -9 50 6 12 13
42 16 67 4 25 9 62 12 82 6 34 2 42 -29 73 -35 35 -35 36 -21 70 8 19 14 50
14 69 0 18 7 47 15 62 21 41 19 76 -8 115 -36 54 -99 74 -148 49 -23 -13 -40
-5 -33 14 4 9 18 12 48 9 35 -4 47 -1 73 21 17 14 33 40 37 58 3 18 20 45 36
60 25 22 30 35 30 72 0 31 -6 52 -18 64 -11 11 -22 32 -25 48 -5 26 -1 34 30
58 32 26 34 31 29 70 -3 22 -5 64 -5 93 0 97 -75 143 -162 99 -31 -16 -69 -14
-69 4 0 4 26 40 58 79 32 39 73 96 92 128 30 50 35 66 35 123 0 61 -4 71 -57
165 -51 89 -88 190 -88 235 0 8 15 22 33 30 17 8 39 29 47 46 9 20 28 36 47
43 58 21 82 78 86 205 2 44 -1 51 -36 81 -42 37 -48 74 -20 123 l17 30 36 -28
c19 -15 51 -37 70 -49z m368 12 l10 -33 -59 0 -60 0 41 42 c22 23 40 47 41 53
0 11 10 -12 27 -62z m2683 -31 c-29 -2 -55 -2 -56 0 -2 2 2 24 8 50 l11 46 46
-46 45 -47 -54 -3z m-3641 73 c0 -8 -9 -19 -20 -25 -17 -9 -20 -8 -20 8 0 10
3 22 7 25 12 12 33 7 33 -8z m4564 9 c16 -6 23 -44 8 -44 -12 0 -32 23 -32 37
0 15 2 15 24 7z m-5043 -45 c32 -32 45 -40 62 -34 63 19 66 19 84 -21 34 -75
52 -94 89 -94 61 0 89 -51 82 -150 l-3 -45 -42 41 c-32 31 -43 49 -43 72 0 37
-9 62 -21 62 -6 0 -5 -9 1 -20 6 -12 10 -33 8 -47 l-3 -26 -45 34 c-29 23 -51
50 -63 79 -15 39 -17 41 -13 13 3 -18 2 -33 -1 -33 -4 0 -44 22 -88 49 -44 27
-91 52 -105 56 -14 4 2 -10 35 -30 33 -20 66 -43 74 -50 18 -18 7 -23 -59 -28
-32 -3 -25 -4 25 -5 59 -2 78 -7 124 -35 30 -17 53 -36 53 -42 -1 -5 -29 -15
-63 -22 -76 -15 -98 -24 -44 -18 164 19 149 20 185 -12 21 -19 30 -34 25 -42
-12 -20 -107 -61 -140 -61 -35 0 -48 7 -63 35 -7 13 -28 23 -64 30 -49 10 -54
13 -64 45 -8 26 -21 40 -54 56 -58 29 -68 49 -41 85 27 37 27 42 -10 83 -22
25 -29 43 -27 63 3 32 21 34 76 12 30 -13 34 -12 58 14 13 15 27 27 30 27 3 0
23 -18 45 -41z m5570 15 c26 -25 28 -25 59 -9 72 37 104 -6 51 -68 -34 -38
-39 -68 -15 -87 8 -8 14 -25 12 -39 -2 -20 -13 -29 -47 -42 -35 -12 -47 -24
-55 -47 -15 -44 -29 -55 -78 -61 -32 -5 -45 -12 -55 -31 -16 -32 -38 -39 -88
-28 -52 12 -126 55 -119 71 2 6 20 23 39 36 29 20 42 22 78 17 23 -4 65 -9 92
-11 35 -3 24 1 -35 13 l-85 17 36 27 c49 38 110 58 183 60 l61 2 -70 5 -70 6
50 38 c28 20 60 40 73 43 21 6 32 24 14 24 -5 0 -51 -27 -103 -59 -79 -50 -94
-57 -97 -41 -2 10 4 34 12 54 8 20 12 34 7 32 -4 -3 -18 -31 -30 -63 -26 -72
-27 -74 -75 -103 l-39 -23 5 49 c5 47 5 48 -7 19 -7 -16 -11 -33 -9 -37 13
-20 -60 -108 -89 -108 -14 0 -3 110 15 146 11 23 22 30 55 35 24 3 44 7 47 10
2 2 20 30 40 62 39 61 60 77 79 58 22 -22 55 -12 83 24 32 42 40 43 75 9z
m-2152 -169 c58 -42 176 -75 265 -75 97 0 188 30 262 87 31 23 34 23 235 21
l203 -3 -3 -1285 c-1 -707 -4 -1286 -4 -1286 -3 -2 -2197 2520 -2220 2552
l-19 24 616 0 616 0 49 -35z m-1463 -145 c76 -38 131 -80 107 -80 -24 0 -96
31 -128 56 -40 30 -41 28 -18 -21 22 -45 13 -53 -31 -25 -41 24 -41 24 -22
-16 8 -16 17 -40 21 -53 8 -25 9 -25 -42 -4 -8 3 -13 -3 -13 -16 0 -23 -11
-26 -42 -10 -20 11 -21 5 -1 -48 7 -17 -2 -16 -37 2 -25 13 -30 22 -30 53 0
23 -9 51 -25 74 -38 55 -42 91 -15 118 21 21 29 22 108 17 75 -4 96 -10 168
-47z m-442 -11 c14 -11 26 -27 26 -35 0 -7 9 -19 21 -26 24 -15 81 -112 77
-130 -5 -21 40 -75 67 -82 16 -4 32 -21 46 -47 11 -23 22 -39 25 -37 9 10 -27
77 -52 97 -14 11 -23 24 -20 30 3 5 0 11 -6 14 -7 2 -10 7 -7 11 4 4 27 -19
51 -51 24 -32 52 -58 61 -58 23 0 95 -74 109 -112 6 -18 18 -35 26 -38 25 -9
24 1 -3 33 -14 16 -25 37 -25 45 0 9 -8 22 -17 29 -10 7 -27 24 -38 37 l-20
24 21 -11 c24 -13 53 -45 100 -114 24 -35 40 -47 67 -52 20 -4 46 -15 59 -25
l23 -19 -27 -7 c-16 -4 -39 -4 -53 -1 -28 7 -30 4 -15 -25 13 -23 12 -23 -33
-4 -60 25 -76 14 -37 -25 11 -11 20 -22 20 -25 0 -3 -38 -5 -85 -5 -92 0 -180
25 -217 62 -22 22 -17 38 7 18 17 -14 31 -8 20 9 -3 6 -15 11 -27 11 -11 0
-33 9 -48 20 l-29 21 6 -38 5 -38 -26 30 c-14 17 -25 35 -26 41 0 13 -39 63
-40 52 0 -4 4 -18 9 -31 7 -18 6 -30 -4 -43 -14 -18 -14 -18 -15 1 0 11 -7 31
-15 45 -14 24 -14 23 -15 -30 l0 -55 -21 33 c-26 40 -32 37 -19 -9 16 -55 13
-65 -12 -43 -21 19 -21 19 -14 -1 21 -57 37 -140 34 -182 l-3 -48 -13 45 c-34
123 -54 180 -63 180 -13 0 -12 -6 15 -113 13 -52 27 -121 31 -153 l6 -59 -25
43 c-50 84 -116 325 -116 421 0 46 24 81 56 81 13 0 50 -13 81 -30 63 -34 76
-36 92 -17 16 21 -21 150 -58 202 -35 49 -38 60 -15 73 14 8 14 10 0 21 -9 8
-16 26 -16 42 0 22 8 34 33 49 40 25 48 25 81 -1z m3541 -73 c-4 -43 -3 -70 5
-83 10 -16 8 -29 -15 -74 -42 -81 -45 -225 -8 -328 6 -14 4 -14 -14 2 -46 40
-58 215 -24 328 11 35 23 96 27 134 6 60 15 84 33 85 2 0 0 -29 -4 -64z
m-4579 -42 c6 -49 16 -107 23 -129 6 -22 11 -92 11 -155 0 -109 -1 -117 -26
-145 l-25 -30 6 30 c4 17 11 71 15 120 7 92 -1 130 -46 218 -16 33 -18 51 -4
42 6 -4 10 22 10 70 0 109 22 96 36 -21z m907 62 c8 -20 2 -23 -38 -18 -29 3
-33 7 -24 18 15 18 55 18 62 0z m3747 -16 c0 -5 -11 -10 -25 -10 -14 0 -25 5
-25 10 0 6 11 10 25 10 14 0 25 -4 25 -10z m155 -16 c36 -14 65 -30 65 -35 0
-15 -23 -10 -74 16 -27 14 -58 25 -68 25 -10 0 -18 5 -18 10 0 16 25 12 95
-16z m-3252 -26 c9 -11 17 -27 17 -34 0 -12 -5 -12 -30 1 -26 13 -50 42 -50
60 0 12 45 -7 63 -27z m-673 12 c8 -5 11 -10 5 -10 -5 0 -17 5 -25 10 -8 5
-10 10 -5 10 6 0 17 -5 25 -10z m847 -66 c-3 -3 -90 24 -127 40 -24 10 -22 10
20 16 40 5 49 2 77 -24 18 -16 31 -31 30 -32z m-253 25 c27 -32 33 -49 17 -49
-11 0 -61 58 -61 71 0 18 19 9 44 -22z m3146 16 c-7 -8 -16 -12 -21 -9 -13 8
-1 24 18 24 13 0 13 -3 3 -15z m-3165 -66 c11 -17 -1 -21 -15 -4 -8 9 -8 15
-2 15 6 0 14 -5 17 -11z m269 -54 c33 -37 56 -72 54 -82 -2 -14 -10 -10 -38
18 -19 20 -50 57 -68 82 -50 71 -16 59 52 -18z m-294 13 c0 -18 -17 -7 -29 19
-13 28 -13 28 8 9 12 -11 21 -23 21 -28z m204 9 c28 -36 50 -87 38 -87 -5 0
-27 27 -50 60 -44 64 -34 87 12 27z m-43 -28 l20 -40 -20 11 c-27 14 -55 56
-46 70 10 15 23 3 46 -41z m-213 29 c13 -13 16 -48 4 -48 -14 0 -32 23 -32 42
0 21 11 23 28 6z m405 0 c31 -32 78 -98 70 -98 -12 0 -113 90 -113 101 0 13
29 11 43 -3z m-463 -61 c0 -6 -9 -2 -20 8 -11 10 -20 23 -20 28 0 6 9 2 20 -8
11 -10 20 -23 20 -28z m218 13 c12 -16 22 -32 22 -35 0 -14 -18 -2 -43 30 -18
22 -23 35 -14 35 7 0 23 -13 35 -30z m-52 -7 c20 -27 16 -38 -6 -18 -20 18
-26 35 -14 35 4 0 13 -8 20 -17z m-26 -38 c25 -30 3 -25 -26 6 -22 24 -24 29
-8 21 11 -6 27 -18 34 -27z m3704 3 c8 -13 5 -24 -12 -47 -23 -32 -29 -66 -12
-76 20 -12 9 -46 -26 -81 -22 -23 -33 -42 -29 -52 6 -17 -31 -62 -52 -62 -8 0
-22 -13 -31 -30 -23 -40 -56 -52 -133 -48 l-64 3 33 21 c19 12 51 24 72 28 20
3 46 14 57 23 10 10 14 14 7 10 -7 -4 -36 -11 -65 -14 l-53 -6 45 52 c43 51
136 110 176 112 11 0 13 3 5 6 -7 3 -31 -2 -54 -11 -22 -9 -42 -15 -44 -13 -2
2 16 27 41 56 69 81 53 75 -30 -11 -42 -43 -77 -78 -80 -78 -3 0 -2 20 1 44 4
27 2 46 -5 50 -8 5 -11 -12 -11 -57 0 -59 -3 -69 -37 -116 -21 -28 -41 -51
-45 -51 -4 0 -9 19 -11 43 -3 34 -4 31 -5 -19 -1 -33 -8 -69 -16 -79 -13 -19
-15 -18 -31 17 -14 28 -16 48 -10 94 6 49 13 63 41 89 18 17 39 47 45 66 17
50 38 69 75 69 28 0 38 6 59 40 27 42 48 49 79 25 17 -13 22 -12 44 6 30 23
60 22 76 -3z m-5722 -5 c19 -17 21 -17 50 0 36 21 60 11 78 -32 13 -33 33 -44
62 -35 27 8 44 -10 63 -67 12 -35 25 -54 45 -64 45 -23 64 -111 39 -184 -21
-60 -48 -25 -51 66 l-1 58 -6 -50 -6 -50 -42 59 c-32 44 -43 70 -45 100 -1 39
-1 40 -5 7 l-4 -34 -76 74 c-74 72 -75 72 -28 17 51 -62 51 -67 4 -42 -17 8
-33 13 -36 11 -2 -3 20 -16 49 -30 48 -23 66 -40 132 -126 19 -24 -81 -7 -118
20 -20 15 -26 17 -17 5 20 -25 59 -42 111 -50 44 -7 70 -21 70 -37 0 -5 -30
-9 -68 -9 -70 0 -112 17 -112 46 0 8 -12 19 -27 25 -41 15 -63 39 -63 68 0 15
-13 38 -32 58 -30 31 -31 35 -20 66 17 46 15 61 -8 82 -23 21 -25 36 -8 53 17
17 48 15 70 -5z m1638 -240 c0 -12 9 -30 20 -41 21 -19 50 -82 50 -107 0 -12
-4 -14 -19 -5 -12 6 -17 17 -14 29 2 10 -9 44 -26 76 -17 32 -31 67 -31 79 0
17 2 18 10 6 5 -8 10 -25 10 -37z m70 -38 c0 -23 -3 -27 -10 -15 -5 8 -10 29
-10 45 0 23 3 27 10 15 5 -8 10 -28 10 -45z m-100 23 c0 -19 -2 -20 -10 -8
-13 19 -13 30 0 30 6 0 10 -10 10 -22z m-34 -15 c3 -16 8 -34 10 -41 7 -22 -6
-34 -22 -21 -16 13 -19 89 -4 89 5 0 12 -12 16 -27z m621 -11 c26 -21 64 -47
83 -59 43 -26 88 -73 71 -73 -22 0 -55 22 -131 88 -41 36 -79 69 -84 74 -6 5
-6 8 1 8 6 0 33 -17 60 -38z m28 20 c17 -10 51 -27 77 -36 47 -18 97 -60 85
-72 -3 -4 -20 2 -36 12 -17 11 -62 38 -101 62 -38 24 -70 45 -70 47 0 9 15 5
45 -13z m160 -23 c15 -15 -28 -10 -55 7 -25 15 -25 15 10 8 19 -3 39 -10 45
-15z m-168 -67 c91 -104 81 -126 -12 -27 -69 74 -92 112 -63 103 7 -3 41 -37
75 -76z m-72 11 c48 -50 93 -119 83 -128 -1 -2 -40 32 -86 76 -46 43 -78 79
-71 79 6 0 9 7 5 15 -11 30 17 13 69 -42z m3869 41 c20 -20 20 -23 -4 -59 -26
-40 -25 -59 5 -79 34 -22 32 -52 -5 -71 -34 -17 -38 -39 -14 -73 23 -33 11
-67 -28 -82 -50 -20 -68 -40 -68 -75 0 -56 -33 -75 -133 -77 -47 -1 -89 1 -93
4 -3 4 8 32 25 62 28 49 38 57 89 76 31 11 76 27 99 36 23 8 47 22 55 31 11
14 11 15 -1 9 -22 -14 -174 -66 -179 -61 -2 2 8 19 22 38 14 19 26 38 26 44 0
11 52 63 64 63 13 0 107 42 103 46 -2 3 -23 -3 -47 -11 -55 -19 -66 -19 -49 3
21 25 70 102 65 102 -2 0 -35 -39 -72 -87 -57 -73 -69 -83 -75 -67 -6 15 -8
13 -8 -11 -1 -33 -60 -137 -76 -132 -11 4 -11 20 -1 64 l6 28 -15 -25 c-8 -14
-14 -46 -15 -71 0 -31 -9 -62 -27 -94 -24 -44 -27 -46 -40 -29 -17 23 -33 80
-33 117 0 39 27 87 49 87 32 0 61 33 68 75 7 47 19 65 43 65 27 0 62 33 74 71
9 29 16 34 45 37 20 2 50 16 70 33 41 33 53 35 75 13z m-6296 -21 c16 -21 28
-27 58 -28 34 0 40 -4 47 -30 15 -50 23 -60 53 -69 51 -15 59 -22 66 -66 8
-48 32 -80 60 -80 25 0 58 -57 58 -102 0 -44 -27 -118 -44 -118 -18 1 -56 93
-57 141 -1 24 -3 35 -6 24 -9 -39 -20 -35 -56 19 -27 41 -37 67 -38 98 -1 39
-2 40 -8 13 l-6 -30 -50 64 c-85 107 -99 122 -65 64 18 -29 36 -55 41 -58 5
-4 9 -11 9 -16 0 -11 -43 -2 -85 19 -16 8 -25 9 -19 3 6 -6 35 -20 65 -31 30
-11 62 -30 72 -42 28 -36 76 -112 72 -116 -2 -2 -33 6 -71 17 -37 12 -69 19
-72 17 -2 -3 9 -8 24 -12 16 -4 58 -20 94 -36 56 -25 69 -35 93 -78 16 -28 25
-55 22 -60 -11 -17 -146 -12 -185 8 -31 15 -36 23 -40 62 -4 39 -10 47 -45 67
-57 32 -69 51 -50 79 25 38 19 71 -15 89 -37 19 -39 49 -5 71 28 19 32 41 10
70 -15 20 -20 56 -8 67 17 17 62 6 81 -20z m1931 -43 c0 -8 -6 -4 -13 10 -8
14 -12 29 -8 34 6 10 20 -20 21 -44z m-19 -125 c36 -40 51 -89 21 -71 -20 13
-99 143 -110 181 -18 66 -13 64 30 -15 22 -41 49 -84 59 -95z m482 88 c48 -49
79 -89 83 -108 6 -26 -3 -20 -77 56 -45 47 -96 95 -113 107 l-30 21 30 1 c25
0 45 -14 107 -77z m-182 47 c0 -14 7 -20 23 -20 21 -1 22 -1 3 -15 -27 -20
-31 -19 -44 10 -16 34 -15 45 3 45 8 0 15 -9 15 -20z m-1510 -8 c0 -3 -15 -28
-32 -56 -24 -37 -34 -45 -36 -32 -2 10 1 30 6 44 6 15 13 35 15 44 4 11 13 15
26 11 12 -3 21 -8 21 -11z m1226 -67 c20 -48 1 -44 -33 6 -22 33 -24 42 -12
49 15 10 20 3 45 -55z m-78 -50 c7 -14 30 -49 51 -78 38 -50 66 -105 58 -114
-3 -2 -20 20 -39 49 -55 83 -101 168 -91 168 6 0 15 -11 21 -25z m-1284 -36
c-3 -5 -14 -5 -25 1 -26 14 -24 18 6 12 14 -2 22 -8 19 -13z m2221 -1479 c605
-696 1105 -1272 1112 -1280 10 -13 -19 -15 -230 -15 -192 -1 -260 -5 -327 -19
-86 -17 -181 -54 -211 -82 -14 -13 -22 -11 -72 20 -121 72 -279 90 -717 81
-420 -9 -574 7 -709 73 -60 30 -111 83 -132 139 -11 32 -14 249 -17 1311 l-3
1273 104 -118 c57 -65 598 -687 1202 -1383z m-857 1310 c12 -19 22 -44 22 -55
-1 -17 -4 -16 -25 10 -40 49 -127 213 -120 226 5 7 26 -20 54 -67 26 -44 57
-95 69 -114z m3757 166 c-20 -14 -35 -12 -35 5 0 5 12 9 27 9 26 0 26 -1 8
-14z m-5327 -11 c2 -2 0 -5 -5 -8 -5 -3 -19 1 -33 9 l-25 14 30 -6 c17 -4 31
-8 33 -9z m1529 -188 c19 -32 33 -61 30 -64 -3 -3 -33 32 -66 78 -48 65 -61
90 -61 118 l0 36 31 -55 c17 -30 47 -81 66 -113z m3609 25 c-9 -8 -26 10 -26
26 1 15 2 15 15 -2 8 -11 13 -21 11 -24z m-466 -6 c15 -20 39 -20 63 -1 25 18
44 10 52 -23 10 -40 24 -52 60 -52 31 0 35 -4 69 -77 38 -79 107 -183 145
-217 15 -14 18 -22 10 -27 -16 -10 -50 4 -105 42 -34 23 -44 36 -44 57 0 15
-7 47 -15 72 -14 40 -15 41 -10 10 3 -19 8 -47 11 -62 4 -16 2 -28 -2 -28 -5
0 -33 22 -62 48 -46 41 -54 53 -61 97 -4 28 -13 59 -20 70 -12 20 -12 20 -7 0
23 -99 16 -108 -35 -42 -49 63 -53 66 -30 20 11 -23 26 -45 33 -49 9 -6 5 -10
-12 -15 l-25 -7 27 -1 c17 -1 44 -15 68 -37 39 -35 45 -59 12 -50 -43 12 -86
16 -72 8 8 -6 39 -13 69 -17 40 -5 67 -17 102 -44 26 -20 48 -39 48 -42 1 -10
-39 -19 -84 -19 -34 -1 -37 -2 -21 -12 13 -7 29 -7 56 1 47 14 110 14 110 0 0
-20 -73 -41 -128 -37 -61 5 -87 28 -98 86 -7 36 -37 62 -71 62 -38 0 -56 28
-48 75 5 40 4 44 -32 73 -38 30 -38 31 -21 59 15 25 15 31 1 57 -14 27 -14 31
2 42 19 14 42 7 65 -20z m-3781 10 c9 -10 9 -20 0 -40 -9 -20 -9 -32 -1 -51
15 -32 9 -46 -29 -68 -30 -16 -31 -19 -24 -65 7 -54 0 -64 -50 -76 -35 -9 -65
-33 -65 -53 0 -30 -33 -75 -65 -89 -47 -19 -79 -18 -128 7 -37 19 -39 23 -21
29 11 5 40 4 65 -1 71 -13 99 -9 39 7 -30 8 -59 16 -63 17 -17 5 113 87 140
88 15 1 39 5 53 10 19 7 15 8 -17 4 -24 -3 -43 -2 -43 3 0 18 70 75 102 82 32
8 32 8 5 9 l-28 1 24 33 c42 56 41 64 -3 15 -23 -27 -45 -48 -49 -48 -8 0 1
64 14 105 6 17 5 17 -4 4 -6 -9 -17 -45 -25 -79 -15 -65 -33 -89 -100 -143
l-39 -31 6 30 c17 93 16 106 -3 45 -10 -35 -17 -68 -14 -72 2 -4 -17 -24 -43
-44 -78 -59 -132 -61 -76 -2 43 46 84 110 132 205 38 75 44 82 71 82 24 0 33
7 50 40 20 39 42 51 55 30 11 -17 61 -11 80 10 21 23 38 25 54 6z m4211 -5
c17 -33 11 -48 -10 -22 -11 13 -20 27 -20 32 0 16 19 9 30 -10z m-5010 -20
c-26 -45 -30 -47 -30 -9 0 31 3 35 20 31 15 -4 17 -9 10 -22z m4984 -6 c11
-19 17 -38 14 -41 -8 -7 -48 45 -48 62 0 24 15 15 34 -21z m375 -34 c1 -23 0
-23 -24 9 -24 33 -25 35 -8 48 16 11 19 10 25 -10 3 -13 6 -34 7 -47z m-410
23 c24 -41 27 -56 7 -48 -15 6 -36 47 -36 69 0 23 6 18 29 -21z m-26 -29 c17
-29 21 -45 13 -45 -11 0 -56 68 -56 84 0 19 22 0 43 -39z m-2235 25 c34 -6 86
-21 115 -34 53 -24 142 -84 135 -91 -9 -9 -100 26 -132 50 -43 33 -50 32 -31
-5 28 -54 14 -65 -36 -29 -33 23 -34 23 -15 -17 34 -70 30 -87 -16 -63 -19 10
-20 9 -16 -15 4 -22 2 -26 -11 -20 -47 19 -52 18 -41 -10 16 -44 12 -49 -22
-29 -26 15 -32 25 -33 55 -1 21 -13 54 -27 75 -49 76 -40 128 25 136 17 2 34
4 37 5 3 1 33 -3 68 -8z m2197 -40 c29 -56 31 -72 10 -64 -14 6 -55 81 -55
102 0 27 21 9 45 -38z m-2507 -16 c12 -8 22 -21 22 -29 0 -7 10 -22 23 -32 26
-20 77 -103 77 -124 0 -8 -10 1 -21 19 -12 18 -24 31 -27 28 -12 -13 72 -111
112 -131 12 -6 32 -27 45 -48 13 -20 26 -35 28 -34 9 10 -30 78 -52 93 -14 9
-23 19 -20 22 2 3 -1 12 -8 20 -7 9 -8 14 -1 11 6 -2 31 -28 55 -58 41 -50 83
-83 64 -50 -4 8 11 -4 34 -26 23 -22 51 -59 62 -82 11 -24 26 -43 35 -43 17 0
12 13 -19 48 -11 12 -17 22 -12 22 5 0 -2 12 -16 28 -13 15 -33 38 -44 51
l-20 25 31 -22 c17 -11 43 -40 59 -64 46 -69 66 -88 105 -98 20 -5 47 -19 60
-30 l23 -20 -56 0 c-57 0 -67 -6 -45 -28 17 -17 -1 -15 -47 4 -47 19 -55 12
-27 -25 l21 -29 -64 -7 c-101 -10 -221 30 -249 84 -8 15 -26 35 -40 44 l-25
17 6 -38 c6 -33 5 -36 -9 -24 -9 7 -26 33 -37 58 -25 53 -34 56 -26 10 10 -49
-11 -54 -32 -9 l-17 38 -5 -48 -6 -49 -18 32 c-22 37 -32 34 -17 -4 15 -39 14
-74 -2 -58 -24 24 -26 11 -7 -49 17 -55 27 -181 13 -167 -3 4 -14 41 -25 85
-22 91 -38 133 -50 133 -10 0 -4 -40 22 -135 10 -38 21 -97 25 -130 l6 -60
-26 43 c-62 105 -131 402 -107 460 21 50 59 51 133 5 42 -26 86 -30 94 -9 9
25 -32 152 -66 200 -31 46 -32 66 -4 66 12 0 11 5 -5 26 -29 37 -27 66 7 86
34 22 61 22 90 2z m-138 -38 c0 -2 3 -11 6 -20 5 -12 0 -16 -19 -16 -14 0 -33
3 -42 7 -15 5 -14 8 6 19 24 13 49 18 49 10z m660 -76 c13 -24 13 -40 -1 -40
-13 0 -69 55 -69 69 0 16 59 -8 70 -29z m-675 10 c3 -6 -1 -7 -9 -4 -18 7 -21
14 -7 14 6 0 13 -4 16 -10z m599 -45 c10 -15 15 -30 11 -33 -8 -8 -65 53 -65
69 0 16 35 -7 54 -36z m223 11 l28 -29 -25 7 c-14 4 -43 12 -65 18 -22 6 -46
16 -53 23 -10 9 -3 12 37 11 42 -1 56 -6 78 -30z m2483 4 c0 -5 -9 -10 -21
-10 -11 0 -17 5 -14 10 3 6 13 10 21 10 8 0 14 -4 14 -10z m-2519 -52 c9 -7
40 -39 69 -71 41 -44 51 -60 42 -69 -15 -15 -43 10 -100 92 -40 57 -44 75 -11
48z m-251 -23 c18 -19 20 -25 8 -25 -8 0 -20 11 -26 25 -6 14 -10 25 -9 25 2
0 14 -11 27 -25z m45 15 c3 -5 -1 -10 -9 -10 -8 0 -18 5 -21 10 -3 6 1 10 9
10 8 0 18 -4 21 -10z m190 -54 c26 -44 33 -72 15 -61 -11 6 -80 111 -80 121 0
16 43 -23 65 -60z m-65 3 c11 -21 16 -39 11 -39 -17 0 -60 60 -55 75 8 21 21
10 44 -36z m224 -11 c25 -29 46 -56 46 -61 0 -12 -49 25 -95 72 -34 36 -36 41
-18 41 13 0 39 -20 67 -52z m-426 14 c4 -24 -7 -29 -26 -10 -18 18 -15 40 6
36 9 -2 18 -13 20 -26z m-178 8 c0 -5 -2 -10 -4 -10 -3 0 -8 5 -11 10 -3 6 -1
10 4 10 6 0 11 -4 11 -10z m326 -35 c38 -50 23 -55 -16 -5 -17 22 -27 40 -21
40 5 0 22 -16 37 -35z m2833 4 c-37 -29 -67 -22 -49 11 6 12 18 15 41 12 l32
-5 -24 -18z m-6049 1 c0 -22 -20 -26 -38 -8 -19 19 -14 28 13 28 18 0 25 -5
25 -20z m2990 5 c20 -24 6 -28 -15 -5 -10 11 -13 20 -8 20 6 0 16 -7 23 -15z
m192 -39 c10 -19 8 -18 -16 3 -14 14 -26 29 -26 34 0 13 29 -12 42 -37z m-47
-6 c18 -20 15 -38 -4 -25 -15 9 -33 45 -23 45 5 0 17 -9 27 -20z m-2916 -57
c1 -19 -46 -16 -53 3 -4 9 -5 18 -4 19 2 1 12 7 23 13 20 11 32 -2 34 -35z
m5606 37 c22 -8 24 -13 15 -30 -6 -12 -21 -20 -35 -20 -27 0 -28 3 -19 38 7
26 5 25 39 12z m-5282 -173 c-50 -81 -60 -103 -73 -175 -17 -93 2 -223 47
-330 37 -85 37 -90 35 -202 -2 -105 1 -123 29 -208 l31 -92 18 22 c14 18 21
20 30 11 9 -9 8 -26 -8 -75 -29 -90 -33 -116 -22 -123 6 -4 10 5 10 19 0 14 5
26 10 26 6 0 10 -10 10 -22 0 -13 9 -56 19 -95 19 -74 15 -94 -9 -48 -19 35
-24 24 -10 -20 9 -28 9 -39 0 -50 -16 -19 -30 -10 -30 20 0 13 -14 65 -30 116
-17 51 -44 145 -60 208 -16 64 -36 136 -45 161 -13 36 -15 67 -10 160 6 109 5
121 -24 220 -41 138 -48 226 -27 310 18 68 69 168 113 221 42 49 39 16 -4 -54z
m4919 31 c19 -29 42 -65 51 -79 20 -33 44 -118 52 -185 8 -60 -14 -200 -45
-288 -23 -67 -25 -116 -8 -197 11 -52 9 -62 -15 -130 -14 -41 -44 -144 -66
-229 -22 -85 -47 -177 -55 -205 -9 -27 -16 -61 -16 -74 0 -24 0 -24 -20 -6
-15 14 -19 26 -14 50 4 21 1 35 -9 44 -13 10 -13 19 -1 64 8 29 14 62 14 75 0
12 5 22 10 22 6 0 10 -11 10 -24 0 -14 5 -28 10 -31 15 -10 12 9 -17 95 -22
66 -24 81 -13 95 11 14 14 13 28 -6 8 -11 18 -17 22 -12 4 4 19 46 33 93 22
71 26 103 24 195 -1 99 2 118 27 185 15 41 34 92 42 112 8 21 17 75 20 121 8
101 -10 172 -66 267 -45 76 -56 100 -43 100 5 0 25 -24 45 -52z m-212 -58 c11
0 20 -4 20 -8 0 -11 -104 -9 -112 3 -4 5 -2 15 4 22 8 10 16 10 39 -2 15 -8
37 -15 49 -15z m-4406 -1 c-3 -5 -17 -9 -32 -9 -25 1 -26 2 -9 15 20 14 51 10
41 -6z m1916 -24 c0 -13 11 -36 25 -51 24 -26 52 -101 41 -111 -11 -11 -26 10
-26 36 0 16 -8 39 -19 52 -10 13 -21 35 -25 49 -4 14 -10 33 -13 44 -3 12 -1
16 6 12 6 -4 11 -18 11 -31z m-27 -21 c-4 -12 -8 -13 -14 -3 -9 15 -2 32 11
24 5 -3 6 -13 3 -21z m2226 10 c25 -15 30 -15 59 0 39 20 64 10 87 -34 17 -33
32 -36 83 -18 31 12 35 11 53 -11 10 -13 19 -33 19 -46 0 -36 36 -73 78 -81
45 -8 79 -37 91 -79 10 -36 2 -185 -9 -185 -5 0 -17 15 -29 33 -11 18 -31 43
-46 57 -15 14 -34 51 -45 89 -21 68 -49 126 -50 103 0 -7 6 -25 14 -40 8 -15
18 -45 22 -67 l7 -39 -81 73 c-48 43 -94 95 -111 126 -32 57 -63 88 -37 37 9
-17 16 -33 16 -36 0 -2 -21 7 -47 22 l-48 26 70 -68 c63 -60 67 -67 40 -60
-51 12 -115 21 -110 15 3 -3 44 -15 91 -27 82 -21 140 -56 128 -75 -3 -5 -26
-9 -52 -10 -43 -1 -44 -1 -18 -9 16 -5 48 -7 70 -4 37 5 45 1 84 -35 23 -22
42 -45 42 -50 0 -13 -27 -19 -95 -25 -27 -2 -10 -3 39 -3 82 1 90 0 108 -23
l20 -25 -78 -3 c-44 -2 -93 -1 -110 3 -42 7 -74 40 -74 75 0 34 -23 50 -73 50
-41 0 -58 17 -60 62 -2 25 -10 37 -37 55 -59 38 -60 40 -54 88 5 35 3 49 -15
71 -25 32 -26 42 -4 66 20 22 27 22 62 2z m-3985 -11 c33 -15 37 -15 54 0 23
21 46 22 66 1 22 -21 20 -35 -9 -79 -20 -28 -23 -40 -15 -50 23 -28 7 -59 -40
-76 -43 -16 -45 -18 -48 -60 -3 -51 -21 -69 -67 -69 -37 0 -60 -22 -70 -68
-10 -48 -45 -62 -155 -62 -49 0 -90 4 -90 8 0 24 40 44 77 38 21 -3 54 -2 73
3 33 8 32 9 -22 10 -31 1 -60 6 -64 12 -3 6 13 31 37 55 42 43 44 44 98 39 54
-5 54 -3 2 17 l-24 9 28 29 c16 17 38 30 49 30 12 1 44 8 71 16 l50 14 -53 -5
-54 -6 39 39 c21 22 58 53 82 71 60 43 36 39 -29 -4 -29 -19 -54 -35 -56 -35
-3 0 2 13 11 30 8 16 15 32 15 36 0 8 -54 -74 -61 -92 -5 -14 -163 -154 -167
-149 -2 2 4 28 13 57 27 80 28 85 11 58 -9 -14 -23 -50 -32 -80 -9 -30 -31
-71 -48 -91 -17 -19 -41 -49 -52 -65 -12 -16 -25 -26 -28 -23 -4 3 -7 47 -8
98 -2 110 13 138 85 161 57 18 78 39 92 88 l11 37 62 -2 c59 -3 62 -2 77 27
12 23 38 48 52 50 1 0 18 -8 37 -17z m1856 5 c0 -7 3 -24 6 -38 5 -24 5 -24
-10 -6 -18 22 -21 56 -6 56 6 0 10 -6 10 -12z m-130 -24 c14 -36 12 -64 -4
-64 -14 0 -26 29 -26 68 0 30 18 28 30 -4z m612 -2 c18 -15 59 -44 90 -65 52
-33 91 -77 70 -77 -16 0 -88 54 -151 113 -63 58 -69 80 -9 29z m43 9 c17 -10
47 -24 68 -30 40 -13 94 -57 84 -67 -3 -3 -17 0 -31 8 -47 25 -166 99 -166
103 0 9 15 5 45 -14z m139 -10 c13 -5 16 -10 8 -15 -11 -6 -52 9 -52 19 0 7
22 5 44 -4z m-224 -67 c55 -60 80 -98 80 -125 0 -5 -35 25 -77 68 -49 49 -78
86 -78 101 -1 12 2 22 6 22 4 0 35 -30 69 -66z m63 -3 c37 -38 67 -77 67 -88
0 -12 -24 7 -75 62 -41 44 -74 83 -75 88 -1 18 22 2 83 -62z m-3358 28 c31
-28 69 -33 105 -14 29 15 33 15 63 -2 18 -10 47 -40 64 -67 33 -48 61 -121 51
-132 -18 -17 -71 17 -140 90 -83 87 -108 97 -33 14 25 -28 45 -55 45 -60 0
-16 -139 0 -177 20 -17 9 -59 32 -92 50 -76 40 -80 35 -6 -8 30 -17 55 -33 55
-35 0 -1 -51 -1 -112 1 l-113 3 87 -9 c48 -5 111 -15 139 -23 l52 -13 -44 -29
c-24 -16 -57 -32 -74 -36 l-30 -7 29 -1 c16 -1 53 14 87 35 55 33 63 35 112
29 83 -11 86 -18 26 -53 -73 -43 -52 -41 24 2 l62 35 42 -19 c51 -23 49 -30
-20 -87 -58 -49 -99 -55 -140 -23 -32 25 -67 25 -118 0 -47 -24 -71 -16 -87
29 -13 38 -49 48 -90 27 -17 -9 -38 -16 -46 -16 -20 0 -30 35 -17 59 20 36
-11 71 -63 71 -33 0 -46 38 -20 57 10 7 26 13 35 13 32 0 49 12 49 35 0 39 22
48 75 31 63 -22 68 -21 120 24 48 41 62 43 100 9z m6141 0 c46 -49 59 -52 115
-34 57 19 79 15 79 -16 0 -25 26 -48 56 -49 47 0 62 -56 17 -65 -70 -14 -78
-20 -77 -50 0 -17 4 -38 8 -47 12 -26 -18 -33 -76 -18 -56 14 -66 9 -82 -42
-13 -41 -45 -48 -82 -19 -35 28 -78 26 -130 -4 -40 -24 -46 -24 -76 -12 -37
16 -118 88 -118 105 0 6 20 18 45 28 l45 17 51 -32 c27 -17 62 -33 77 -36 15
-3 20 -2 12 1 -8 4 -37 20 -64 37 l-49 31 59 12 c63 12 82 7 159 -45 17 -12
44 -21 60 -20 l30 1 -29 8 c-31 10 -106 59 -106 69 0 12 114 31 191 32 41 0
83 5 94 10 22 10 -174 4 -212 -7 -42 -12 -24 14 32 46 30 17 55 33 55 36 0 6
-95 -42 -140 -71 -37 -24 -159 -51 -185 -41 -20 7 -8 31 43 88 25 28 30 38 15
30 -11 -7 -37 -34 -57 -61 -40 -54 -91 -91 -125 -91 -20 0 -22 4 -16 33 9 45
65 135 98 159 20 14 36 18 55 13 75 -19 98 -17 128 9 38 34 64 32 100 -5z
m-3356 -184 c31 -39 40 -68 18 -59 -23 8 -107 148 -117 194 -16 69 -14 68 29
-17 22 -44 53 -97 70 -118z m10 152 c0 -18 -2 -19 -10 -7 -13 20 -13 43 0 35
6 -3 10 -16 10 -28z m462 -44 c48 -49 79 -89 83 -108 6 -27 -2 -21 -72 51 -43
44 -90 89 -105 99 -34 21 -36 35 -5 35 15 0 48 -26 99 -77z m-178 42 c4 -15
14 -25 24 -25 15 0 15 -2 2 -10 -24 -16 -36 -12 -48 15 -16 34 -15 45 2 45 8
0 17 -11 20 -25z m-301 -42 c40 -78 25 -102 -18 -30 -29 51 -30 57 -10 57 8 0
21 -12 28 -27z m-57 -95 c9 -18 34 -53 55 -80 37 -48 55 -85 46 -94 -3 -3 -18
14 -34 38 -45 65 -108 182 -95 174 7 -4 19 -21 28 -38z m28 -118 c67 -111 85
-161 47 -126 -17 15 -112 179 -127 219 -3 9 -2 17 4 17 6 0 40 -49 76 -110z
m2940 60 c-35 -21 -37 -20 -24 14 9 24 12 25 31 15 21 -11 21 -11 -7 -29z
m-5314 21 c0 -5 3 -17 6 -26 6 -14 3 -14 -20 -4 -26 12 -31 20 -19 32 10 10
33 8 33 -2z m2386 -202 c13 -19 24 -39 24 -43 0 -16 -32 18 -80 88 -38 52 -50
79 -50 105 0 35 2 34 42 -39 22 -41 51 -91 64 -111z m2989 71 l29 -30 -31 0
c-63 0 -143 -54 -143 -98 0 -8 -3 -12 -6 -9 -14 14 29 97 67 131 21 20 43 36
47 36 5 0 21 -13 37 -30z m-5367 -11 c33 -31 67 -87 59 -96 -3 -2 -11 5 -17
17 -14 27 -68 50 -115 50 -19 0 -35 2 -35 5 0 9 54 54 65 55 6 0 25 -14 43
-31z m3720 -91 c55 -23 155 -88 147 -96 -9 -10 -95 24 -127 49 -40 31 -48 23
-23 -21 27 -48 16 -52 -39 -15 -42 28 -43 27 -16 -25 28 -56 27 -72 -6 -60
-35 14 -36 13 -29 -10 7 -23 -6 -26 -37 -9 -20 11 -20 9 -14 -26 l7 -38 -32
19 c-25 15 -32 26 -34 55 -1 19 -14 53 -28 74 -35 52 -37 111 -4 125 40 18
167 5 235 -22z m-423 -20 c15 -6 33 -27 40 -45 8 -18 18 -33 24 -33 13 0 48
-50 67 -97 16 -40 12 -38 -24 11 -12 16 -22 25 -22 20 0 -26 82 -118 122 -138
12 -6 33 -29 46 -51 l23 -40 -7 34 -6 35 26 -17 c19 -13 26 -14 26 -5 0 24
103 -99 105 -124 0 -13 25 -32 32 -25 3 4 -3 17 -15 30 -12 13 -22 30 -22 38
0 9 -12 26 -26 40 -14 13 -30 32 -36 42 -9 17 -8 18 16 2 13 -9 44 -45 68 -81
36 -54 50 -66 90 -80 60 -20 78 -39 43 -48 -14 -4 -36 -4 -50 0 -25 6 -35 -8
-15 -21 27 -16 5 -23 -30 -9 -56 22 -67 14 -35 -24 l27 -32 -83 0 c-101 0
-181 23 -221 65 -16 16 -39 41 -51 53 l-22 24 -5 -34 -5 -33 -22 32 c-13 17
-23 35 -23 40 0 5 -7 18 -15 29 -14 18 -15 16 -9 -22 8 -53 -10 -66 -26 -19
-17 51 -34 57 -27 9 9 -53 -6 -75 -23 -35 -15 37 -34 42 -20 5 6 -14 10 -37
10 -52 -1 -26 -1 -26 -15 -8 -19 25 -19 12 -1 -48 19 -63 32 -185 18 -171 -5
6 -21 52 -35 104 -14 52 -31 99 -36 104 -18 18 -13 -22 14 -135 14 -57 25
-119 25 -138 l0 -35 -19 31 c-65 107 -137 415 -109 467 24 47 58 48 133 6 57
-32 95 -33 95 -1 0 40 -39 154 -64 186 -29 39 -33 64 -11 73 14 5 14 7 1 22
-8 9 -17 28 -21 42 -5 22 -1 29 27 47 39 25 39 25 73 10z m-117 -68 c2 -13 -6
-15 -40 -12 -39 4 -40 5 -22 19 23 17 58 13 62 -7z m625 -29 c21 -8 57 -71 41
-71 -17 0 -64 37 -73 57 -12 25 -5 28 32 14z m-648 -11 c3 -5 2 -10 -4 -10 -5
0 -13 5 -16 10 -3 6 -2 10 4 10 5 0 13 -4 16 -10z m823 -33 c12 -11 22 -24 22
-28 0 -8 -66 11 -120 34 -24 11 -24 11 15 17 45 7 51 5 83 -23z m-230 -4 c29
-44 34 -53 24 -53 -16 0 -62 48 -62 65 0 23 17 18 38 -12z m-10 -62 c3 -8 -1
-12 -9 -9 -7 2 -15 10 -17 17 -3 8 1 12 9 9 7 -2 15 -10 17 -17z m255 -41 c26
-33 51 -60 57 -60 5 0 10 -9 10 -20 0 -11 -4 -20 -9 -20 -12 0 -90 89 -114
130 -33 55 6 35 56 -30z m-287 3 c-4 -4 -14 1 -22 11 -22 31 -17 43 8 19 12
-13 18 -26 14 -30z m213 0 c37 -55 43 -93 8 -51 -70 86 -76 98 -53 98 8 0 28
-21 45 -47z m-386 -14 l27 -40 -25 17 c-13 9 -31 29 -39 44 -20 41 3 28 37
-21z m332 -1 l28 -53 -29 25 c-37 32 -44 41 -44 63 0 31 16 18 45 -35z m-218
30 c16 -20 23 -48 13 -48 -14 0 -40 30 -40 46 0 17 14 18 27 2z m440 -35 c48
-58 64 -83 42 -67 -102 76 -135 114 -100 114 11 0 37 -21 58 -47z m-503 -9 c8
-21 -7 -17 -21 6 -11 16 -10 18 1 14 8 -3 17 -12 20 -20z m226 -5 c31 -43 19
-46 -19 -4 -20 23 -26 35 -17 35 8 0 24 -14 36 -31z m-44 -14 c24 -37 10 -42
-16 -6 -12 17 -17 31 -11 31 6 0 18 -11 27 -25z m-32 -30 c9 -14 16 -27 16
-31 0 -10 -40 28 -51 48 -15 27 16 12 35 -17z m-4136 -35 c28 -37 63 -39 103
-6 36 30 62 25 89 -20 25 -40 46 -47 103 -39 33 5 48 3 60 -9 17 -17 62 -144
54 -152 -10 -10 -116 58 -134 85 -18 29 -83 88 -83 77 0 -4 16 -23 36 -42 19
-20 33 -38 31 -41 -10 -9 -153 41 -180 64 -16 12 -34 23 -41 23 -8 0 -26 10
-42 22 -21 16 -25 17 -15 5 8 -10 32 -27 54 -38 21 -11 37 -22 35 -25 -3 -2
-40 2 -84 10 -43 7 -81 12 -82 11 -6 -5 70 -25 98 -26 34 -1 123 -33 127 -45
2 -6 -15 -16 -38 -23 -22 -7 -39 -14 -37 -16 2 -2 31 4 65 15 57 18 64 18 111
3 27 -9 59 -24 72 -33 22 -17 22 -17 -34 -45 -72 -36 -66 -43 8 -9 44 20 62
24 83 17 43 -15 38 -30 -19 -59 -51 -26 -152 -64 -170 -64 -4 0 -8 12 -8 27 0
57 -67 85 -105 43 -22 -24 -60 -26 -69 -4 -3 9 -6 28 -6 44 0 35 -15 48 -65
52 -39 3 -40 4 -46 47 -3 27 -13 49 -25 57 -36 25 -44 35 -44 54 0 21 6 23 56
20 21 -1 41 7 60 24 38 33 56 32 82 -4z m6147 10 c13 -15 31 -20 65 -20 32 0
52 -5 61 -16 12 -14 9 -20 -16 -40 -17 -14 -36 -29 -43 -35 -7 -6 -12 -25 -10
-43 3 -46 -8 -56 -57 -56 -50 0 -70 -22 -60 -63 4 -15 1 -28 -10 -37 -14 -12
-23 -10 -60 10 -54 29 -98 21 -103 -20 -6 -50 -7 -50 -80 -26 -80 28 -124 49
-141 70 -10 12 -9 17 8 25 31 17 57 13 112 -15 28 -14 53 -24 55 -21 2 2 -23
17 -55 33 -33 16 -59 33 -58 38 2 5 31 20 66 34 55 22 68 24 95 14 46 -17 80
-15 41 2 l-30 13 40 17 c22 10 72 24 110 31 71 14 125 31 125 39 0 3 -15 0
-32 -6 -41 -13 -150 -30 -155 -24 -3 3 8 12 24 21 l28 16 -30 -6 c-16 -4 -41
-17 -55 -29 -22 -21 -159 -70 -168 -61 -2 2 13 21 32 43 20 22 36 42 36 45 0
10 -67 -57 -84 -84 -15 -23 -136 -97 -136 -83 0 3 12 39 26 80 30 84 46 98 95
84 45 -13 63 -6 99 41 37 46 60 49 102 14 39 -33 63 -32 90 5 25 35 48 38 73
10z m-5323 -103 c28 -36 25 -54 -14 -109 l-21 -31 -14 53 c-13 53 -4 120 17
120 4 0 19 -15 32 -33z m4479 6 c6 -17 8 -55 4 -97 l-7 -69 -19 24 c-10 13
-25 44 -34 68 -15 44 -15 45 12 73 15 15 28 28 30 28 2 0 8 -12 14 -27z
m-4697 -180 c20 -62 36 -119 36 -128 0 -10 -22 2 -65 36 -61 48 -78 69 -55 69
6 0 10 10 10 21 0 47 24 152 31 133 3 -11 22 -69 43 -131z m3177 11 c20 -22
45 -92 35 -101 -11 -11 -26 10 -26 36 0 16 -9 40 -21 54 -11 15 -22 44 -25 64
l-4 38 11 -35 c6 -19 19 -44 30 -56z m45 -11 c-10 -10 -27 40 -20 60 7 19 9
17 16 -17 5 -21 6 -41 4 -43z m-96 58 c0 -17 -18 -21 -24 -6 -3 9 0 15 9 15 8
0 15 -4 15 -9z m-33 -60 c4 -27 2 -41 -6 -41 -17 0 -33 50 -26 79 8 33 25 14
32 -38z m594 34 c19 -13 62 -43 97 -66 63 -42 96 -79 69 -79 -17 0 -84 48
-117 85 -14 15 -43 41 -64 56 -21 16 -34 29 -29 29 6 0 25 -11 44 -25z m109
-22 c60 -28 109 -67 99 -78 -5 -5 -167 90 -189 112 -18 17 -13 15 90 -34z m85
12 c23 -10 25 -13 10 -14 -11 0 -31 6 -45 14 -32 18 -5 19 35 0z m-235 -52
c68 -74 90 -105 90 -124 0 -30 -153 123 -155 155 -1 31 17 23 65 -31z m140
-95 c0 -25 -15 -23 -33 5 -8 12 -38 47 -65 77 -28 30 -48 58 -45 63 8 13 143
-124 143 -145z m-630 79 c0 -18 -2 -19 -10 -7 -13 20 -13 43 0 35 6 -3 10 -16
10 -28z m468 -49 c52 -53 73 -83 78 -108 7 -34 5 -33 -67 44 -41 44 -92 92
-113 108 l-39 28 34 0 c29 0 45 -11 107 -72z m-478 -103 c23 -26 43 -65 33
-65 -15 0 -28 15 -67 69 -44 62 -66 110 -66 143 0 16 14 -2 41 -52 22 -41 49
-84 59 -95z m295 146 c3 -11 14 -21 23 -23 14 -3 14 -6 -5 -16 -20 -11 -24 -9
-38 17 -19 37 -19 41 -1 41 8 0 17 -9 21 -19z m-302 -38 c39 -77 25 -102 -17
-31 -19 31 -22 44 -13 50 16 10 15 11 30 -19z m-53 -100 c12 -21 39 -62 60
-92 40 -54 57 -102 25 -71 -16 17 -115 181 -115 193 0 16 11 5 30 -30z m1825
-21 c-6 -16 -7 -16 -17 2 -8 14 -7 21 3 27 17 10 24 -4 14 -29z m-1824 -54
c23 -40 52 -89 64 -108 13 -19 26 -46 30 -60 l7 -25 -26 25 c-31 30 -137 220
-130 232 9 14 12 10 55 -64z m55 -193 l17 -30 -23 20 c-12 11 -45 51 -71 89
-37 52 -49 78 -49 105 0 38 -3 43 126 -184z m-3256 106 c0 -6 -4 -13 -10 -16
-5 -3 -10 1 -10 9 0 9 5 16 10 16 6 0 10 -4 10 -9z m5130 -11 c0 -11 -2 -20
-5 -20 -2 0 -9 9 -15 20 -9 16 -8 20 5 20 8 0 15 -9 15 -20z m105 -134 c22 -1
36 -10 52 -32 31 -44 72 -59 125 -46 32 8 47 8 67 -3 l26 -13 -47 -21 c-35
-15 -53 -30 -64 -54 l-17 -35 -35 24 c-19 13 -49 24 -67 24 -31 0 -34 4 -69
80 -41 91 -42 95 -18 84 9 -4 31 -8 47 -8z m-5323 -36 c-8 -19 -25 -56 -38
-82 -23 -45 -27 -48 -63 -48 -28 0 -45 -7 -64 -25 l-25 -26 -19 38 c-12 27
-31 44 -61 58 l-43 20 31 23 c23 18 34 20 49 12 45 -23 118 -1 138 42 9 20 18
23 60 23 l50 0 -15 -35z m631 -315 c15 -9 50 -46 78 -81 65 -82 95 -99 231
-135 135 -35 238 -76 238 -95 0 -18 -6 -18 -75 6 -80 28 -92 24 -20 -6 63 -26
83 -40 72 -50 -7 -7 -81 20 -186 68 l-64 30 -24 -26 c-23 -25 -53 -35 -53 -17
0 5 7 14 15 21 8 7 15 16 15 20 0 10 -178 87 -230 99 -25 6 -96 11 -157 11
l-113 0 0 25 c0 37 50 42 183 16 132 -25 167 -27 119 -6 -18 8 -40 29 -50 46
-9 18 -30 46 -45 63 l-29 31 21 -36 c12 -20 21 -45 21 -55 -1 -22 -45 26 -106
113 -35 50 -35 52 -18 78 l17 26 66 -64 c36 -35 78 -72 94 -82z m4182 78 c-2
-7 -30 -47 -62 -90 -39 -51 -59 -71 -61 -60 -2 10 7 34 19 55 l23 37 -23 -19
c-12 -11 -32 -38 -44 -59 -12 -21 -38 -47 -57 -58 -46 -24 -25 -24 100 1 153
30 200 27 200 -16 0 -23 -1 -23 -112 -22 -82 1 -129 -3 -173 -16 -70 -21 -215
-86 -215 -96 0 -4 7 -13 15 -20 8 -7 15 -16 15 -21 0 -18 -29 -8 -48 16 -24
30 -44 31 -86 6 -48 -29 -186 -84 -193 -77 -12 12 24 38 78 56 30 10 46 19 37
19 -10 1 -41 -8 -70 -19 -63 -24 -68 -24 -68 -6 0 19 120 70 210 90 136 30
164 43 216 99 50 52 98 98 207 199 l62 57 17 -22 c10 -12 16 -28 13 -34z
m1008 -8 c33 -41 47 -43 103 -13 45 23 74 19 74 -11 0 -38 28 -53 86 -45 l53
6 11 -42 c9 -33 18 -44 44 -55 57 -24 56 -57 -2 -70 -26 -5 -37 -15 -48 -42
-13 -29 -19 -34 -37 -29 -73 22 -83 20 -105 -18 -26 -44 -57 -47 -110 -11 -44
30 -52 31 -85 5 -30 -24 -79 -26 -112 -4 -36 23 -117 147 -110 166 12 31 34
27 88 -18 72 -59 83 -56 23 5 l-49 50 26 6 c42 11 64 -3 122 -76 51 -63 90
-97 101 -86 2 2 -6 9 -19 16 -19 11 -105 118 -116 144 -6 16 188 0 215 -17 12
-9 33 -34 46 -57 12 -24 29 -44 36 -47 9 -3 8 3 -4 16 -23 27 -46 82 -34 82 5
0 40 -11 76 -25 37 -14 69 -24 71 -22 8 9 -123 59 -184 71 l-66 12 29 22 29
23 -39 -16 c-27 -10 -73 -15 -150 -15 l-111 1 23 19 c13 11 36 29 50 40 47 37
-1 9 -55 -32 -81 -62 -88 -40 -11 36 78 77 100 82 141 31z m-6257 4 c18 -11
52 -41 75 -67 56 -64 29 -68 -46 -8 -68 56 -87 60 -25 6 l45 -39 -108 -1 c-74
0 -119 5 -144 15 -45 19 -56 19 -20 -1 35 -19 35 -34 -2 -34 -37 0 -146 -35
-191 -61 -37 -21 -30 -20 62 14 31 12 60 19 64 15 3 -4 -5 -29 -20 -55 -23
-42 -23 -44 -3 -20 67 86 80 95 147 102 36 4 82 5 104 3 l38 -3 -56 -72 c-32
-40 -62 -73 -68 -73 -6 0 -9 -3 -6 -6 12 -11 48 17 93 74 53 69 82 87 121 78
l27 -7 -49 -50 c-61 -62 -49 -64 18 -4 53 47 64 50 82 22 14 -23 -15 -77 -75
-139 -37 -40 -52 -48 -81 -48 -20 0 -46 9 -61 20 -33 26 -44 25 -95 -9 -51
-35 -74 -31 -102 16 -21 37 -32 38 -97 18 -19 -6 -25 -2 -37 26 -11 25 -23 36
-52 44 -55 15 -59 48 -8 72 27 13 41 28 49 53 12 35 12 35 71 35 58 0 59 0 77
38 21 42 33 45 87 17 46 -24 78 -16 99 24 17 31 42 33 87 5z m4411 15 c-3 -3
-12 -4 -19 -1 -8 3 -5 6 6 6 11 1 17 -2 13 -5z m-74 -11 c-7 -2 -21 -2 -30 0
-10 3 -4 5 12 5 17 0 24 -2 18 -5z m-140 -10 c-18 -2 -48 -2 -65 0 -18 2 -4 4
32 4 36 0 50 -2 33 -4z m1105 -45 c11 -18 24 -45 27 -60 l7 -28 -70 0 -71 0
40 60 c22 33 41 60 44 60 2 0 12 -15 23 -32z m-4400 -26 c17 -26 32 -51 32
-55 0 -4 -27 -7 -60 -7 -54 0 -60 2 -60 21 0 29 30 89 44 89 6 0 26 -21 44
-48z m824 -117 c26 -40 43 -49 66 -36 28 16 52 -5 52 -44 0 -46 31 -78 65 -69
42 10 57 -11 50 -71 -7 -50 -6 -53 25 -75 61 -44 58 -97 -10 -154 -39 -32 -65
-33 -84 -3 -14 20 -14 29 -1 77 8 30 14 69 14 85 0 19 -6 6 -14 -34 -8 -35
-16 -66 -19 -68 -2 -3 -21 26 -42 63 -41 73 -44 106 -20 187 8 26 10 45 6 42
-4 -3 -13 -27 -20 -55 -7 -27 -15 -50 -19 -50 -4 0 -20 36 -36 81 -16 44 -33
83 -37 85 -4 3 2 -21 12 -52 11 -32 18 -59 16 -62 -3 -2 -20 6 -38 18 -26 17
-24 14 10 -17 30 -26 52 -60 73 -108 27 -65 35 -95 25 -95 -17 0 -60 24 -92
51 l-39 33 36 -38 c19 -20 53 -43 75 -50 40 -14 83 -70 84 -110 0 -17 -6 -18
-67 -12 -38 4 -81 15 -98 25 -25 14 -30 23 -30 58 -1 29 -8 49 -28 72 -34 40
-34 65 -2 93 32 28 31 40 -4 80 -22 26 -27 38 -20 51 6 9 17 17 25 17 12 0 14
9 8 45 -8 57 -1 75 31 75 17 0 31 -10 47 -35z m2762 -27 c-1 -47 2 -59 16 -63
28 -9 32 -34 9 -53 -12 -9 -25 -28 -30 -41 -8 -21 -5 -29 21 -52 16 -15 30
-32 30 -38 0 -6 -14 -26 -31 -46 -26 -29 -30 -41 -25 -68 5 -27 2 -38 -17 -55
-26 -25 -123 -48 -161 -38 l-25 6 18 43 c14 31 30 47 60 62 36 18 130 95 116
95 -2 0 -25 -16 -51 -35 -46 -36 -84 -45 -84 -22 0 7 4 17 9 22 4 6 17 33 27
60 10 29 35 66 59 89 29 27 32 33 12 21 -15 -10 -29 -16 -32 -14 -2 2 5 29 15
59 29 87 15 70 -20 -24 -18 -47 -36 -86 -40 -86 -5 0 -11 18 -15 39 -3 22 -13
47 -21 58 -14 17 -15 17 -6 -2 6 -11 15 -46 21 -77 12 -55 11 -58 -24 -127
-19 -39 -40 -71 -45 -71 -5 0 -14 15 -19 33 -5 17 -10 25 -10 17 -1 -8 4 -32
10 -53 8 -31 7 -43 -6 -63 -8 -13 -25 -24 -37 -24 -31 0 -98 76 -98 112 0 26
9 39 55 77 13 11 16 24 12 60 -7 64 5 82 53 79 22 -1 43 1 47 5 4 5 10 29 13
55 l5 47 43 -1 c39 -1 47 3 75 38 21 26 38 38 52 36 18 -3 20 -10 19 -60z
m-4274 -8 c0 -5 -4 -10 -10 -10 -5 0 -10 5 -10 10 0 6 5 10 10 10 6 0 10 -4
10 -10z m820 -95 c50 -19 99 -35 108 -35 24 0 6 -12 -46 -32 -56 -21 -100 -23
-169 -5 -29 8 -50 10 -47 5 3 -4 25 -13 50 -19 24 -6 44 -15 44 -20 0 -5 -14
-16 -31 -24 -23 -12 -53 -16 -119 -13 -97 3 -108 -10 -16 -19 l57 -6 -61 -33
c-34 -18 -83 -49 -108 -68 -37 -30 -54 -36 -96 -37 -46 -1 -47 -2 -16 -8 l35
-6 -48 -39 c-68 -56 -51 -56 25 -1 34 26 80 56 101 66 45 24 48 13 13 -55 -19
-37 -20 -44 -6 -31 10 9 29 42 44 74 14 32 34 64 43 73 28 24 262 132 270 124
4 -4 -7 -36 -25 -72 -18 -35 -32 -68 -32 -72 1 -11 49 69 70 115 20 45 37 58
91 68 47 9 52 -6 29 -74 -23 -65 -76 -139 -120 -169 -29 -19 -41 -21 -95 -16
-60 6 -63 5 -81 -21 -48 -70 -60 -77 -117 -70 -51 7 -54 6 -89 -29 -39 -39
-64 -44 -109 -21 -25 13 -36 14 -64 4 -30 -11 -37 -10 -55 6 -31 28 -26 66 15
102 36 32 42 47 25 58 -15 9 -12 48 6 73 11 16 25 22 50 22 54 0 74 15 74 55
0 22 8 43 21 56 19 19 29 21 76 15 l55 -6 58 60 c33 35 66 60 78 60 11 0 62
-16 112 -35z m4256 -20 l47 -55 63 2 c76 4 95 -10 103 -74 l6 -43 54 -8 c32
-4 59 -14 67 -25 17 -22 18 -64 2 -80 -9 -9 -4 -20 25 -50 42 -43 49 -83 16
-105 -16 -12 -27 -12 -49 -4 -22 8 -38 8 -63 -1 -58 -21 -86 -15 -120 23 -30
35 -32 35 -87 29 l-57 -6 -39 47 -38 47 -65 -5 -64 -5 -47 44 c-47 44 -107
148 -112 194 -4 32 22 37 76 16 37 -15 45 -25 80 -98 22 -45 41 -77 43 -71 2
6 -7 34 -21 62 -29 56 -33 81 -13 81 8 0 70 -29 138 -64 l124 -64 31 -63 c17
-35 42 -73 55 -84 l24 -20 -21 25 c-21 25 -50 97 -42 106 3 2 42 -22 87 -54
121 -84 131 -89 76 -39 l-49 45 34 5 c30 3 29 4 -12 5 -38 2 -57 10 -106 47
-33 25 -86 57 -119 72 l-58 27 67 6 c93 7 91 15 -5 16 -95 2 -141 10 -157 29
-9 11 0 17 46 30 71 21 66 29 -6 10 -73 -19 -94 -18 -165 9 l-60 23 80 27 c44
14 87 31 95 36 8 5 32 10 52 10 32 0 42 -7 84 -55z m-3896 -85 c20 -13 11 -18
-40 -25 l-45 -7 25 21 c28 23 38 25 60 11z m3420 -22 c0 -4 -7 -5 -15 -3 -50
16 -50 16 -36 25 14 8 51 -8 51 -22z m-2703 -203 c2 -6 -43 -31 -99 -55 -97
-42 -108 -44 -188 -43 -55 0 -76 -2 -60 -7 14 -4 37 -8 53 -9 15 -1 27 -4 27
-8 0 -5 -33 -31 -73 -60 -49 -35 -88 -55 -118 -60 -42 -7 -43 -7 -14 -13 l30
-6 -38 -37 c-58 -56 -37 -45 55 30 46 36 89 71 97 77 12 9 13 6 7 -19 -5 -22
-4 -26 4 -15 5 8 10 22 10 31 0 14 119 88 168 103 29 9 28 -5 -3 -69 -13 -27
-23 -51 -21 -53 3 -2 21 30 41 72 40 79 61 96 127 99 29 2 33 -1 36 -25 7 -63
-58 -138 -121 -138 -29 0 -50 -18 -100 -83 -38 -50 -57 -59 -91 -42 -34 18
-50 11 -76 -30 -27 -44 -40 -47 -88 -22 -37 19 -43 19 -59 5 -27 -23 -51 -28
-78 -18 -32 12 -32 35 0 64 27 25 31 46 14 63 -23 23 -5 56 46 82 49 26 50 26
47 69 -6 69 3 73 134 65 132 -7 179 5 234 62 l34 35 30 -18 c16 -9 31 -22 33
-27z m2009 16 c13 -16 45 -39 70 -52 43 -20 56 -21 165 -16 141 8 152 3 142
-68 l-5 -43 50 -26 c56 -28 67 -46 47 -73 -17 -21 -19 -53 -5 -53 5 0 17 -11
26 -25 13 -20 14 -28 4 -40 -15 -18 -63 -20 -90 -3 -19 12 -25 11 -92 -17 -10
-4 -22 0 -33 13 -66 76 -60 73 -100 56 -40 -16 -38 -18 -131 90 -23 27 -39 36
-62 36 -61 0 -134 95 -117 150 8 24 16 25 81 5 45 -14 51 -19 72 -69 13 -30
30 -63 38 -73 8 -10 2 8 -11 41 -14 32 -23 61 -20 65 4 3 45 -14 92 -39 59
-31 88 -53 94 -70 21 -57 29 -66 22 -25 -6 38 -5 39 13 24 10 -8 46 -38 79
-65 88 -73 105 -83 60 -36 l-39 42 31 0 c18 0 34 3 36 8 3 4 -14 6 -36 4 -37
-3 -51 3 -119 53 -43 31 -78 60 -78 65 0 4 19 11 43 14 23 4 49 11 57 17 12 8
11 9 -5 5 -11 -2 -48 -8 -81 -11 -55 -6 -70 -3 -130 23 -38 16 -90 37 -116 47
-27 10 -48 22 -48 27 0 7 58 48 68 48 2 0 14 -13 28 -29z m-176 -2 c-14 -6
-115 -12 -225 -14 -223 -5 -238 2 -34 14 202 12 290 12 259 0z m-1273 -42 c79
-25 103 -36 103 -49 0 -10 -8 -18 -17 -18 -16 -1 -16 -2 1 -15 27 -21 7 -20
-89 5 -43 11 -100 20 -126 20 -54 0 -81 8 -73 21 8 13 70 10 139 -6 33 -8 71
-14 85 -14 24 1 24 1 -5 14 -16 7 -67 19 -112 26 -81 12 -96 22 -71 47 14 14
30 11 165 -31z m1283 1 c0 -49 -9 -51 -187 -61 -92 -5 -215 -10 -273 -12 -58
-1 -111 -4 -119 -6 -7 -2 -15 1 -17 6 -2 6 31 23 73 39 70 28 94 31 282 41
113 7 214 13 224 13 11 2 17 -5 17 -20z m-1523 -298 c51 -16 111 -30 133 -30
47 0 50 -9 12 -31 -15 -9 -86 -53 -158 -96 -81 -49 -147 -82 -170 -86 -22 -3
-46 -8 -55 -11 -12 -5 -15 1 -16 29 -1 30 4 38 28 50 46 24 62 58 56 113 -6
45 -5 48 26 69 18 11 36 22 41 22 5 1 51 -12 103 -29z m463 1 c0 -5 -29 -32
-64 -60 -36 -28 -88 -78 -116 -111 -29 -33 -96 -92 -149 -132 -53 -39 -108
-82 -123 -96 -24 -22 -56 -23 -42 -1 3 5 55 44 115 85 61 42 108 79 105 81 -3
3 -59 -29 -126 -72 -99 -64 -123 -75 -135 -65 -24 20 -19 27 43 67 31 21 59
39 61 40 2 2 2 6 -1 9 -3 3 -30 -8 -60 -25 -54 -31 -84 -40 -73 -22 3 6 31 24
63 42 31 18 110 68 176 111 112 74 147 90 115 52 -7 -9 -46 -38 -86 -65 -74
-51 -94 -69 -71 -69 16 0 101 58 238 163 94 71 130 91 130 68z m475 -83 c60
-40 157 -109 215 -152 58 -44 142 -97 188 -118 45 -22 82 -42 81 -46 0 -4 -29
-22 -65 -40 -59 -30 -66 -31 -92 -18 -15 8 -38 26 -52 41 -14 15 -50 44 -81
66 -31 21 -74 57 -95 81 -72 79 -107 110 -176 155 -67 44 -88 67 -74 80 9 9
226 -140 434 -299 93 -70 132 -92 132 -70 0 4 -17 15 -38 24 -20 10 -77 50
-127 89 -49 39 -149 111 -221 160 -123 83 -168 119 -148 119 4 0 58 -33 119
-72z"/>
<path d="M4285 7024 c-9 -14 -25 -24 -40 -24 -25 0 -42 -15 -26 -24 15 -10
125 -38 151 -40 44 -2 36 29 -11 43 -38 12 -40 14 -25 30 21 24 20 28 -9 33
-18 4 -29 -1 -40 -18z"/>
<path d="M4474 6955 c-4 -9 -13 -13 -24 -10 -9 3 -23 -1 -29 -9 -10 -12 -8
-20 10 -41 13 -14 29 -23 38 -20 8 3 32 -6 54 -21 35 -23 41 -24 54 -11 14 14
11 18 -27 42 -40 25 -41 27 -25 45 16 17 15 19 -4 29 -27 15 -41 14 -47 -4z"/>
<path d="M4195 6894 c-15 -25 -35 -53 -46 -62 -28 -24 -24 -51 9 -58 15 -3 47
-12 71 -20 36 -11 46 -12 53 -2 15 25 8 37 -29 49 -21 6 -41 14 -45 16 -4 2 8
27 27 56 25 37 31 53 22 59 -23 15 -35 8 -62 -38z"/>
<path d="M4376 6815 c-15 -25 -33 -45 -41 -45 -8 0 -19 -9 -25 -20 -8 -15 -6
-23 12 -40 12 -11 27 -19 33 -16 6 2 29 -7 50 -20 29 -17 42 -20 52 -12 22 18
15 33 -27 57 -22 12 -40 25 -40 27 0 3 14 26 31 51 25 36 29 47 18 54 -25 16
-37 9 -63 -36z"/>
<path d="M4566 6690 c-30 -45 -33 -46 -57 -24 -16 14 -18 14 -30 -7 -10 -20
-9 -25 10 -41 13 -9 20 -22 16 -28 -4 -6 -1 -18 6 -26 10 -12 14 -12 20 -2 6
9 17 4 43 -21 l34 -33 12 22 c10 19 8 26 -20 55 l-32 33 31 42 c24 33 28 46
20 56 -17 21 -24 18 -53 -26z"/>
<path d="M4264 6628 c-15 -29 -32 -56 -39 -60 -6 -4 -12 -21 -13 -37 -1 -33
22 -48 44 -30 11 9 23 6 53 -14 21 -14 42 -23 45 -20 13 13 5 29 -21 46 -60
36 -59 31 -27 91 25 49 27 58 14 66 -24 16 -28 13 -56 -42z"/>
<path d="M2660 6150 c0 -5 5 -10 11 -10 5 0 7 5 4 10 -3 6 -8 10 -11 10 -2 0
-4 -4 -4 -10z"/>
<path d="M1420 5665 c-14 -8 -20 -14 -14 -15 5 0 19 7 30 15 24 18 16 19 -16
0z"/>
<path d="M3095 5860 c3 -5 11 -10 16 -10 6 0 7 5 4 10 -3 6 -11 10 -16 10 -6
0 -7 -4 -4 -10z"/>
<path d="M3627 5809 c-38 -23 -67 -42 -65 -44 2 -1 34 -21 71 -44 l69 -42 61
35 c34 20 68 39 75 44 10 6 -6 21 -57 50 -38 23 -73 42 -78 42 -4 -1 -39 -19
-76 -41z m93 -14 c0 -15 21 -25 58 -26 21 -1 18 -4 -15 -11 -28 -7 -43 -17
-48 -32 l-6 -21 -11 22 c-6 13 -24 24 -47 28 -37 8 -36 9 11 19 15 3 30 15 33
26 7 21 25 18 25 -5z"/>
<path d="M3245 5809 c-38 -5 -80 -13 -93 -19 -44 -19 -49 -86 -8 -119 19 -16
175 -7 216 12 35 17 53 59 39 90 -11 24 -49 48 -72 46 -7 -1 -43 -5 -82 -10z
m90 -38 c8 -15 -27 -30 -66 -29 -19 1 -44 -2 -57 -5 -49 -13 -64 15 -18 33 29
12 133 12 141 1z"/>
<path d="M4012 5813 c-7 -3 -19 -18 -27 -33 -16 -31 -9 -66 18 -88 23 -19 193
-37 223 -23 45 20 51 86 12 118 -7 7 -52 17 -98 22 -91 12 -108 12 -128 4z
m192 -53 c15 -11 15 -15 3 -21 -8 -5 -25 -6 -38 -2 -13 3 -39 5 -57 4 -39 -1
-75 15 -66 31 9 15 138 6 158 -12z"/>
<path d="M1512 5500 c0 -14 2 -19 5 -12 2 6 2 18 0 25 -3 6 -5 1 -5 -13z"/>
<path d="M1708 5493 c7 -3 16 -2 19 1 4 3 -2 6 -13 5 -11 0 -14 -3 -6 -6z"/>
<path d="M5852 5500 c0 -14 2 -19 5 -12 2 6 2 18 0 25 -3 6 -5 1 -5 -13z"/>
<path d="M5708 5393 c6 -2 18 -2 25 0 6 3 1 5 -13 5 -14 0 -19 -2 -12 -5z"/>
<path d="M3120 5591 c0 -5 5 -13 10 -16 6 -3 10 -2 10 4 0 5 -4 13 -10 16 -5
3 -10 2 -10 -4z"/>
<path d="M2380 5142 c0 -13 32 -39 58 -46 28 -9 30 13 4 37 -19 18 -62 23 -62
9z"/>
<path d="M2480 5113 c0 -5 7 -17 15 -27 15 -20 20 -10 9 18 -6 16 -24 22 -24
9z"/>
<path d="M2530 5045 c0 -5 9 -21 20 -35 11 -14 20 -20 20 -15 0 6 -9 21 -20
35 -11 14 -20 21 -20 15z"/>
<path d="M2500 5023 c0 -6 9 -22 20 -36 11 -14 20 -29 20 -34 0 -15 61 -106
67 -99 3 3 -2 17 -11 31 -25 38 1 31 40 -12 19 -20 34 -32 34 -25 0 18 -63 82
-81 82 -8 0 -22 12 -30 27 -17 33 -59 80 -59 66z"/>
<path d="M2740 4852 c0 -5 11 -19 25 -32 16 -15 21 -26 15 -30 -7 -4 -1 -14
14 -24 14 -9 26 -12 26 -7 0 5 -7 12 -16 15 -8 3 -13 10 -9 16 3 5 1 19 -5 30
-11 21 -50 46 -50 32z"/>
<path d="M2530 4766 c0 -2 8 -10 18 -17 15 -13 16 -12 3 4 -13 16 -21 21 -21
13z"/>
<path d="M2636 4696 c10 -8 21 -12 24 -10 5 6 -21 24 -34 24 -6 0 -1 -6 10
-14z"/>
<path d="M2740 4656 c0 -2 7 -7 16 -10 8 -3 12 -2 9 4 -6 10 -25 14 -25 6z"/>
<path d="M2664 4641 c8 -12 66 -32 66 -22 0 8 -44 31 -61 31 -6 0 -8 -4 -5 -9z"/>
<path d="M6231 4634 c0 -11 3 -14 6 -6 3 7 2 16 -1 19 -3 4 -6 -2 -5 -13z"/>
<path d="M560 4276 c0 -2 8 -10 18 -17 15 -13 16 -12 3 4 -13 16 -21 21 -21
13z"/>
<path d="M3337 4043 c-9 -9 22 -43 40 -43 7 0 13 -4 13 -10 0 -5 5 -10 10 -10
19 0 10 39 -12 54 -24 17 -41 20 -51 9z"/>
<path d="M3431 4015 c0 -14 28 -50 34 -43 3 3 -3 16 -14 29 -11 13 -20 20 -20
14z"/>
<path d="M3464 3898 c9 -13 23 -38 31 -56 18 -42 56 -95 62 -88 2 2 0 14 -7
25 -17 32 5 26 39 -11 17 -18 31 -27 31 -20 0 17 -54 72 -72 72 -8 0 -30 22
-49 50 -19 27 -38 50 -43 50 -5 0 -1 -10 8 -22z"/>
<path d="M3712 3721 c24 -31 38 -38 38 -21 0 13 -37 50 -51 50 -6 0 0 -13 13
-29z"/>
<path d="M3740 3665 c7 -8 17 -15 22 -15 6 0 5 7 -2 15 -7 8 -17 15 -22 15 -6
0 -5 -7 2 -15z"/>
<path d="M3570 3605 c0 -2 10 -10 23 -16 20 -11 21 -11 8 4 -13 16 -31 23 -31
12z"/>
<path d="M3540 3570 c0 -7 24 -20 36 -20 13 0 1 19 -16 23 -11 3 -20 2 -20 -3z"/>
<path d="M3610 3542 c0 -10 44 -32 63 -32 17 0 -14 27 -40 35 -13 3 -23 2 -23
-3z"/>
<path d="M1678 3333 c7 -3 16 -2 19 1 4 3 -2 6 -13 5 -11 0 -14 -3 -6 -6z"/>
<path d="M1563 3223 c9 -2 23 -2 30 0 6 3 -1 5 -18 5 -16 0 -22 -2 -12 -5z"/>
<path d="M338 3313 c7 -3 16 -2 19 1 4 3 -2 6 -13 5 -11 0 -14 -3 -6 -6z"/>
<path d="M4290 2934 c0 -17 24 -45 35 -40 8 3 16 0 18 -7 3 -8 8 -9 16 -2 17
16 -15 55 -45 55 -13 0 -24 -3 -24 -6z"/>
<path d="M4390 2891 c10 -21 30 -37 30 -26 0 14 -21 45 -31 45 -6 0 -6 -7 1
-19z"/>
<path d="M4413 2800 c9 -14 22 -36 27 -48 21 -48 64 -115 68 -104 2 6 -2 20
-8 31 -16 32 0 25 43 -16 32 -31 37 -33 27 -13 -17 32 -57 70 -75 70 -8 0 -25
17 -39 38 -13 20 -32 44 -42 52 -18 15 -18 14 -1 -10z"/>
<path d="M4650 2632 c0 -5 9 -17 20 -27 11 -10 17 -21 15 -25 -2 -4 4 -15 15
-25 12 -11 20 -13 20 -6 0 6 -6 14 -14 17 -8 3 -12 12 -9 20 3 8 -3 24 -12 34
-19 21 -35 26 -35 12z"/>
<path d="M4440 2551 c0 -5 5 -13 10 -16 6 -3 10 -2 10 4 0 5 -4 13 -10 16 -5
3 -10 2 -10 -4z"/>
<path d="M4532 2494 c10 -10 20 -15 24 -12 3 4 -5 12 -18 18 -22 12 -22 12 -6
-6z"/>
<path d="M4504 2455 c10 -8 23 -12 28 -9 14 9 -2 24 -25 24 -21 -1 -21 -1 -3
-15z"/>
<path d="M4655 2440 c3 -5 11 -10 16 -10 6 0 7 5 4 10 -3 6 -11 10 -16 10 -6
0 -7 -4 -4 -10z"/>
<path d="M4564 2431 c9 -13 66 -32 66 -21 0 12 -34 30 -55 30 -9 0 -14 -4 -11
-9z"/>
<path d="M6729 2593 c-13 -16 -12 -17 4 -4 9 7 17 15 17 17 0 8 -8 3 -21 -13z"/>
<path d="M4852 1105 c0 -16 2 -22 5 -12 2 9 2 23 0 30 -3 6 -5 -1 -5 -18z"/>
<path d="M3071 7021 c-9 -6 -10 -11 -2 -15 22 -14 10 -24 -39 -36 -31 -7 -50
-17 -50 -26 0 -22 25 -27 63 -15 19 7 51 13 71 15 57 4 65 20 26 56 -34 31
-46 35 -69 21z"/>
<path d="M2895 6956 c-10 -7 -16 -20 -12 -28 4 -11 -6 -21 -34 -33 -48 -22
-61 -36 -49 -55 7 -11 19 -8 64 16 45 23 58 26 65 15 6 -10 13 -10 29 -2 25
14 20 40 -17 75 -24 23 -29 24 -46 12z"/>
<path d="M3140 6908 c0 -7 12 -31 25 -53 14 -22 25 -43 25 -47 0 -3 -22 -11
-50 -18 -29 -7 -50 -18 -50 -25 0 -24 18 -26 69 -11 30 9 52 11 58 5 14 -14
43 0 43 21 0 11 -4 21 -9 24 -5 3 -23 31 -40 61 -21 38 -37 55 -51 55 -11 0
-20 -6 -20 -12z"/>
<path d="M2970 6840 c-12 -8 -12 -14 5 -47 11 -21 21 -41 23 -45 2 -4 -19 -18
-47 -33 -35 -17 -49 -29 -45 -40 8 -19 6 -19 64 10 49 25 49 25 60 5 9 -16 14
-18 29 -9 20 13 18 57 -4 74 -7 6 -22 29 -34 53 -23 44 -27 47 -51 32z"/>
<path d="M2785 6717 c-18 -14 -18 -15 5 -52 l23 -37 -37 -32 c-27 -22 -35 -36
-31 -49 6 -15 11 -14 41 13 42 37 48 37 63 4 9 -21 14 -24 26 -14 13 10 13 16
0 40 -14 27 -13 30 6 44 27 18 15 40 -17 32 -19 -5 -26 0 -42 29 -16 32 -19
34 -37 22z"/>
<path d="M3063 6644 c-3 -9 2 -31 11 -50 9 -19 16 -36 16 -39 0 -2 -18 -14
-40 -26 -42 -24 -44 -27 -32 -47 7 -10 16 -9 45 3 47 20 54 19 60 -6 4 -16 9
-19 23 -11 25 14 29 93 6 99 -10 2 -25 24 -36 49 -18 45 -42 57 -53 28z"/>
</g>
</svg>
